<svg width="754" height="838" viewBox="0 0 754 838" fill="none" xmlns="http://www.w3.org/2000/svg">
<path d="M516.56 613.681L514.922 610.11L505.44 610.403C499.237 612.042 499.237 613.973 499.237 615.963C499.237 617.953 493.384 622.459 489.112 623.806C484.898 625.093 480.333 634.867 477.699 636.155C475.124 637.442 466.286 634.223 463.711 633.872C462.541 633.697 460.375 634.165 458.093 634.75C459.732 637.618 463.126 641.012 464.355 641.012C465.994 641.012 466.579 652.6 470.383 654.239C474.246 655.878 481.386 659.741 481.386 661.965C481.386 664.189 485.776 666.939 485.776 670.217C485.776 673.494 490.165 678.001 493.501 677.942C500.524 677.708 501.285 680.635 501.285 682.624C501.285 684.614 510.591 682.624 511.82 684.556C512.932 686.37 522.12 685.668 524.344 686.897C528.149 683.151 533.65 678.293 535.523 675.777C538.449 671.856 535.991 666.471 538.449 665.008C540.907 663.545 546.292 657.166 544.302 656.697C542.371 656.229 543.834 651.313 540.907 648.387C537.981 645.46 544.302 643.997 543.834 638.613C543.365 633.228 544.829 622.459 543.365 621.523C541.902 620.528 535.055 620.06 530.665 617.134C526.276 614.207 516.502 613.739 516.502 613.739L516.56 613.681Z" fill="#3FC0BE"/>
<path d="M522.12 530.222C520.657 530.222 517.146 527.881 514.161 525.715C512.054 528.056 504.563 527.705 500.875 527.705C496.954 527.705 500.407 533.09 497.949 535.021C495.491 536.952 494.555 539.937 496.486 540.874C498.417 541.81 496.018 550.179 496.018 553.106C496.018 556.032 492.096 562.411 493.56 563.348C495.023 564.343 497.481 571.19 500.875 572.127C504.27 573.122 506.728 569.669 508.191 569.669C509.654 569.669 509.654 574.058 509.654 577.511C509.654 580.964 507.723 582.427 507.723 582.427C507.723 582.427 502.339 584.359 499.881 582.427C497.422 580.496 495.491 575.112 495.491 573.122C495.491 571.132 489.638 571.19 487.18 571.19C484.722 571.19 482.323 566.801 481.328 564.811C480.333 562.879 477.406 565.279 477.406 566.742C477.406 568.205 474.948 568.205 472.49 568.205C470.032 568.205 465.174 564.284 463.184 565.279C461.253 566.274 459.263 561.826 459.79 559.895C460.258 557.963 454.874 559.426 452.942 560.363C451.011 561.358 450.016 557.905 450.016 557.905C450.016 557.905 448.904 555.973 447.148 555.096L444.807 576.984L441.998 579.794L425.669 579.208L424.557 615.904L437.14 633.052C443.695 631.706 457.273 629.833 457.273 632.116C457.273 632.818 457.625 633.696 458.151 634.691C460.434 634.164 462.599 633.696 463.77 633.813C466.403 634.164 475.182 637.383 477.757 636.096C480.391 634.808 484.956 625.034 489.17 623.747C493.384 622.459 499.295 617.894 499.295 615.904C499.295 613.914 499.295 611.983 505.499 610.344L514.98 610.052H515.624L513.341 601.917C513.341 601.917 542.195 591.148 543.892 590.855C542.605 588.28 541.317 586.349 541.961 585.997C543.073 585.412 543.658 577.511 543.658 575.287C543.658 573.063 550.447 574.702 548.165 572.478C545.941 570.254 546.467 557.261 547.579 554.452C548.691 551.643 551.559 554.452 551.559 552.169C551.559 549.887 548.165 542.571 546.467 540.347C545.238 538.708 535.172 534.728 532.362 534.143C529.553 533.616 525.047 530.222 522.237 530.222H522.12Z" fill="#2AC6C3"/>
<path d="M44.0778 177.134C44.0778 174.617 55.5488 171.398 55.5488 168.882V139.443C55.5488 139.443 91.484 140.145 92.5375 139.443C93.1227 139.092 93.0055 131.249 92.7714 123.582C91.4253 121.3 93.3568 119.368 84.8705 119.368H43.9022C40.7418 122.295 39.0445 126.275 37.874 129.494C35.9426 134.702 23.7106 142.369 23.1839 149.685C22.7157 157.001 11.3031 168.413 3.8117 184.04C1.76328 188.371 0.826756 191.707 0.592651 194.399H44.0778V177.134Z" fill="#1FADAA"/>
<path d="M561.625 399.884L560.513 391.983L555.479 387.418C554.016 388.647 551.909 389.818 551.734 390.988C551.5 392.685 546.817 392.451 544.886 391.456C542.955 390.461 537.804 392.686 536.809 394.149C535.815 395.612 532.42 391.456 529.962 391.691C527.504 391.925 521.651 394.149 521.651 394.149C521.651 394.149 520.656 400.996 520.656 403.688C520.656 406.381 524.343 406.849 524.343 409.073C524.343 411.297 521.417 413.228 521.183 414.691C520.949 416.154 518.959 417.149 516.559 417.852C514.101 418.613 514.335 422.475 512.404 423.938C510.473 425.402 510.941 429.089 509.712 431.781C508.483 434.473 507.78 438.102 507.78 441.321C507.78 443.896 507.429 447.466 505.966 449.339C509.068 449.69 509.887 449.163 511.468 448.402C513.692 447.29 522.763 445.008 522.763 445.008L531.952 444.247C534 438.512 536.985 433.244 540.321 432.308C544.593 431.02 550.446 431.547 555.011 432.659C556.24 429.323 557.469 426.631 558.289 425.811C561.098 423.002 565.078 417.325 565.604 412.818C566.19 408.312 566.19 403.805 566.19 403.805L561.683 399.826L561.625 399.884Z" fill="#1FADAA"/>
<path d="M282.924 21.571C285.557 25.4922 282.28 31.9887 279.646 33.2762C277.013 34.5638 275.081 40.4164 272.448 40.4164C269.814 40.4164 272.448 50.1903 277.013 52.1217C281.578 54.053 281.578 57.3305 281.578 59.2619C281.578 61.1933 288.074 63.1832 290.064 65.7583C291.995 68.3335 295.273 80.741 295.273 85.306C295.273 86.4766 295.682 87.413 296.268 88.2323C297.965 87.1204 300.013 85.7742 300.833 84.194C302.296 81.3848 303.466 76.7027 302.764 75.4151C302.12 74.1275 302.296 71.845 303.759 70.4989C305.222 69.2113 311.075 63.0076 312.245 62.5393C313.416 62.0711 317.162 62.7149 316.986 59.0863C316.928 57.6817 317.103 55.4576 317.337 53.3507C314.704 51.6534 313.065 49.6636 313.065 48.6687C313.065 46.5617 310.138 42.9916 308.5 44.923C306.861 46.8543 300.657 45.2741 299.838 41.1772C299.018 37.0804 303.935 37.256 308.5 33.5103C313.065 29.7646 313.708 22.5659 308.792 18.6447C303.935 14.7234 307.329 12.6165 310.724 9.04638C314.118 5.47629 311.075 3.4864 309.261 5.12514C307.446 6.76387 304.52 7.2321 304.052 3.31084C303.583 -0.610417 292.99 -1.2542 288.893 2.49148C287.489 3.77905 285.265 4.1887 282.982 4.1887C281.987 10.6851 281.168 18.7617 282.865 21.3954L282.924 21.571Z" fill="#35A5DD"/>
<path d="M205.962 330.648C204.031 328.716 208.42 325.029 203.738 322.337C199.641 319.937 198.236 320.64 197.768 312.036C195.427 311.861 191.916 310.866 189.399 310.632C188.872 310.632 188.462 310.69 188.111 310.866C188.638 313.968 189.399 317.421 190.335 317.948C192.033 318.942 193.262 320.874 193.028 324.561C192.793 328.248 191.799 336.266 193.262 339.953C194.725 343.64 196.188 349.493 196.188 355.112C196.188 358.623 198.178 363.832 200.226 367.812C201.104 367.344 201.865 366.875 202.45 366.349C203.913 365.12 206.196 364.359 208.596 363.891C208.361 356.867 207.952 347.328 207.659 343.582C207.191 337.495 207.893 332.579 205.962 330.648Z" fill="#1FADAA"/>
<path d="M618.22 541.635C617.869 534.963 614.007 534.963 614.182 530.398C614.358 525.833 614.65 521.736 613.012 521.268C611.373 520.8 612.368 516.878 614.943 512.957C617.576 509.036 610.202 508.568 609.09 503.651C608.622 501.544 610.963 494.521 613.948 486.913C604.818 480.651 595.454 473.745 595.454 473.745L595.98 466.955L554.368 444.833C554.076 449.924 552.027 453.846 549.042 455.192C545.882 456.655 553.432 461.278 549.803 462.039C546.116 462.742 537.805 458.586 531.953 461.044C528.031 462.683 528.851 452.792 531.894 444.189L522.706 444.95C522.706 444.95 520.189 445.593 517.497 446.354L519.311 451.153C519.311 451.153 521.535 455.66 521.008 458.469C520.774 459.757 518.726 460.342 516.619 460.576C517.38 463.912 517.087 466.37 517.087 466.37L519.896 468.067C519.896 468.067 513.692 479.89 510.883 481.06C510.122 481.353 508.367 482.465 506.201 483.87C507.84 492.18 509.888 502.071 512.932 504.881C518.55 510.031 517.555 515.883 518.784 519.278C520.013 522.731 524.871 526.594 521.476 528.057C519.252 528.993 517.321 526.652 515.331 523.433C515.097 524.019 514.922 524.604 514.629 525.131C514.512 525.306 514.336 525.423 514.219 525.599C517.204 527.823 520.716 530.105 522.179 530.105C524.988 530.105 529.495 533.5 532.304 534.027C535.113 534.612 545.18 538.592 546.409 540.23C546.643 540.523 546.877 540.874 547.111 541.342C549.511 541.225 552.671 541.108 554.544 541.342C554.954 540.991 555.422 540.699 556.183 540.699C559.928 540.699 564.318 554.803 564.084 562.997C566.308 563.29 569.351 563.641 570.346 563.641C571.985 563.641 573.916 561.358 576.842 562.353C579.769 563.348 577.837 565.631 580.412 565.631C582.988 565.631 588.255 563.992 589.835 564.343C591.474 564.694 596.039 565.631 596.332 563.699C596.683 561.768 597.619 558.783 599.902 559.485C602.184 560.129 603.823 562.061 606.398 559.837C609.032 557.554 613.246 559.837 614.241 557.905C614.767 556.91 620.561 554.101 625.946 551.643C625.653 545.381 618.454 548.19 618.162 541.635H618.22Z" fill="#019E9B"/>
<path d="M526.45 726.637C523.758 726.637 518.959 733.25 518.959 734.596C518.959 735.942 522.354 744.604 525.748 744.838C529.143 745.072 531.659 744.838 531.893 742.322C532.01 741.093 532.888 740.098 533.766 739.395C533.532 737.23 532.947 732.665 532.771 729.914C530.781 728.568 528.265 726.695 526.509 726.695L526.45 726.637Z" fill="#019E9B"/>
<path d="M568.355 174.734C565.078 174.734 566.424 182.577 561.215 182.577C556.006 182.577 557.938 187.786 554.719 187.786C551.5 187.786 548.866 184.508 548.866 184.508H534.527C534.527 184.508 531.25 181.231 529.318 182.577C527.387 183.865 525.397 185.152 525.397 185.152H458.15V208.329H447.967V244.322C447.967 244.322 448.669 255.208 446.621 255.91C444.572 256.613 437.081 258.603 437.081 262.056C437.081 265.509 436.379 268.142 432.984 268.845C429.59 269.547 432.984 276.98 428.243 276.98C423.503 276.98 430.292 282.423 427.541 285.115C424.849 287.807 425.493 291.26 428.887 291.26C432.282 291.26 430.936 295.357 430.936 299.395C430.936 303.434 436.379 306.184 436.379 306.184L435.033 310.925C435.033 310.925 442.524 319.762 443.168 321.811C443.87 323.859 447.908 329.302 443.87 331.351C439.832 333.399 442.524 335.447 442.524 335.447L447.265 336.15L448.611 339.544C448.611 339.544 454.054 339.544 457.448 343.641C460.843 347.738 462.189 348.382 462.189 350.43C462.189 352.479 464.881 353.122 468.978 356.575C473.075 359.97 473.016 362.018 473.016 364.067C473.016 366.115 480.507 369.51 480.507 369.51L483.024 375.889C484.312 376.591 485.307 377.352 485.892 378.757C487.238 382.151 490.691 384.2 490.691 384.2C490.691 384.2 494.788 386.95 497.48 384.2C500.231 381.449 503.625 384.902 503.625 384.902C503.625 384.902 507.02 382.151 509.068 383.556C510.473 384.492 516.56 389.467 521.827 394.266C522.588 393.974 527.738 392.101 529.962 391.867C532.42 391.633 535.815 395.788 536.81 394.325C537.805 392.862 542.896 390.638 544.886 391.633C546.818 392.628 551.5 392.862 551.734 391.164C551.909 389.994 553.958 388.823 555.48 387.594C556.182 387.009 556.767 386.424 556.884 385.78C557.352 383.849 563.205 380.396 565.663 379.927C568.121 379.459 571.048 379.166 572.277 380.63C572.862 381.332 573.915 381.8 575.027 382.268C575.847 376.006 577.251 372.612 575.203 372.612C572.452 372.612 567.009 369.861 564.961 364.418C562.912 358.975 556.767 355.58 555.421 352.186C554.075 348.791 546.584 349.435 545.179 346.743C543.833 343.992 547.227 343.992 547.227 340.598C547.227 337.203 555.421 339.252 556.065 338.549C556.767 337.847 557.411 330.356 557.411 326.259C557.411 322.162 562.854 318.065 560.805 316.017C558.757 313.968 562.854 313.266 565.605 311.276C568.355 309.228 566.307 303.082 568.999 300.39C571.75 297.64 573.74 292.255 575.788 292.255C577.836 292.255 580.529 289.504 580.529 286.812C580.529 284.12 585.328 278.618 584.626 273.878C583.923 269.079 581.875 262.992 585.328 258.895C588.722 254.798 590.069 251.404 589.425 248.009C588.781 244.615 593.522 243.912 595.57 241.864C597.033 240.401 602.184 238.294 606.105 232.032C603.647 228.988 600.954 226.472 599.257 225.711C595.336 223.897 592.761 217.049 592.761 208.446C592.761 199.842 590.654 192.936 590.303 190.185C589.951 187.435 585.738 181.582 580.704 178.773C577.134 176.841 575.144 173.857 574.559 170.462C574.442 170.638 574.266 170.813 574.208 170.93C570.93 175.495 571.574 174.852 568.355 174.852V174.734Z" fill="#34A0D7"/>
<path d="M533.943 740.507C533.943 740.507 533.943 740.097 533.767 739.336C532.889 740.038 532.011 741.033 531.894 742.262C531.66 744.779 529.202 745.013 525.749 744.779C522.354 744.545 518.96 735.942 518.96 734.537C518.96 733.132 523.701 726.577 526.451 726.577C528.207 726.577 530.724 728.509 532.714 729.796C532.655 728.801 532.597 728.041 532.714 727.748C532.948 726.285 534.645 709.429 531.719 707.673C528.792 705.976 525.866 688.828 524.871 687.131C523.876 685.433 513.166 686.37 511.937 684.439C510.708 682.507 501.695 684.439 501.461 682.507C500.056 684.556 498.476 686.897 497.656 687.833C496.018 689.765 491.453 688.477 490.809 691.754C490.165 695.032 484.605 698.251 482.03 698.251C479.455 698.251 477.465 702.816 477.465 705.742C477.465 708.668 472.256 712.59 468.042 712.59C463.828 712.59 465.116 716.16 463.828 720.725C462.541 725.29 460.551 725.641 453.411 725.641C446.27 725.641 445.919 724.997 440.359 721.427C434.799 717.857 433.219 724.353 432.868 727.28C432.575 730.206 425.025 736.059 422.743 738.692C420.46 741.267 414.9 739.336 411.681 739.336C408.463 739.336 409.75 736.41 409.75 734.42C409.75 732.43 411.389 733.776 412.033 731.786C412.676 729.855 409.75 722.656 408.462 719.437C407.936 718.033 405.653 716.862 403.254 715.984V756.25C403.254 759.82 397.401 761.459 396.113 763.449C394.826 765.38 386.632 763.8 382.126 763.8C377.619 763.8 378.556 759.235 376.273 755.958C373.99 752.68 370.069 756.953 370.069 759.235C370.069 760.932 368.021 760.64 365.329 760.406C368.899 766.024 372.001 772.637 373.639 778.022C376.273 786.684 382.594 794.819 384.233 799.852C385.871 804.886 387.627 809.626 384.233 810.094C380.838 810.563 380.838 813.489 384.408 819.049C387.978 824.609 384.876 827.828 387.978 828.53C391.08 829.174 390.085 831.105 392.543 831.281C395.001 831.456 396.757 833.914 398.396 836.021C400.035 838.128 403.78 838.128 405.536 835.553C407.35 832.978 412.852 832.159 418.587 832.159C424.323 832.159 423.153 829.701 428.713 828.062C434.273 826.423 440.945 826.248 445.685 827.886C450.426 829.525 453.996 828.062 456.278 826.599C458.561 825.136 462.95 828.881 463.302 825.136C463.653 821.39 468.218 822.034 472.432 822.034C476.646 822.034 486.946 815.362 495.081 807.695C503.216 800.028 516.736 783.289 521.301 775.622C525.866 767.956 533.357 761.459 537.103 758.006C539.912 755.431 541.551 746.418 542.312 739.863C538.449 739.863 534.118 740.507 534.118 740.507H533.943ZM499.997 776.91C499.997 779.544 494.145 776.266 492.857 778.841C491.57 781.475 490.224 784.694 490.224 784.694L485.658 784.05L479.162 774.92C479.162 774.92 484.371 767.78 485.658 765.146C486.946 762.571 495.432 758.006 496.72 760.581C498.008 763.156 503.86 766.434 503.86 769.067C503.86 771.701 499.939 774.276 499.939 776.91H499.997Z" fill="#1FADAA"/>
<path d="M659.306 327.487C661.238 328.482 664.457 333.574 666.622 334.101C668.846 334.569 681.019 338.724 688.862 341.943C696.704 345.104 701.562 345.396 704.02 345.396C706.478 345.396 710.107 346.157 707.942 347.854C705.718 349.551 681.78 373.781 678.62 377.176C675.459 380.57 673.47 379.4 666.388 379.4C659.306 379.4 653.922 387.242 651.991 387.008C650.82 386.833 646.665 387.593 643.094 388.413L637.827 396.138L632.735 404.039L633.321 443.486L638.764 452.148C643.094 446.412 654.683 435.292 663.227 426.279C672.533 416.505 677.215 414.223 682.483 411.648C687.691 409.014 700.918 396.138 709.873 384.784C715.491 377.586 721.754 369.626 722.573 364.417C723.392 359.208 728.601 352.361 732.523 347.328C736.444 342.294 742.94 329.418 742.765 325.497C742.589 321.576 746.042 313.265 746.51 306.242C746.979 299.219 741.126 298.575 739.312 302.496C737.497 306.418 723.51 308.993 714.555 309.168C705.601 309.344 700.216 310.163 696.939 313.265C693.661 316.367 685.526 312.446 682.6 315.899C679.673 319.293 668.085 322.22 664.339 314.436C662.759 311.158 660.652 309.285 658.662 308.173C655.502 311.392 651.756 316.191 652.4 317.713C653.395 319.937 657.258 326.726 659.248 327.721L659.306 327.487Z" fill="#019E9B"/>
<path d="M72.521 347.504C72.9892 345.28 74.4524 343.114 73.2819 341.183C72.0529 339.252 71.8188 337.028 71.8188 334.569C71.8188 332.111 65.4394 323.567 63.0398 323.567C60.6402 323.567 57.4212 325.791 54.729 325.264C52.0368 324.796 49.813 323.801 49.5789 326.493C49.4033 328.307 45.1893 332.053 42.0289 334.745C42.6727 336.033 43.1994 337.32 43.6091 338.783C46.2428 347.738 48.6423 349.552 52.388 352.654C54.0853 354.059 57.3628 356.166 61.2255 358.565C62.1619 356.809 63.0398 355.405 63.7421 354.878C66.2002 352.947 72.0528 349.728 72.521 347.562V347.504Z" fill="#1FADAA"/>
<path d="M12.4735 296.995C14.522 297.171 18.6775 294.537 18.6775 294.537C18.6775 294.537 32.4897 293.542 34.7722 293.308C35.5916 293.25 36.5865 293.601 37.5229 294.069C37.5229 293.484 37.5229 293.016 37.5229 293.016C37.5229 293.016 44.8387 294.479 45.3654 296.176C45.8336 297.873 55.9 299.102 61.5185 297.171C61.9282 297.054 62.338 296.878 62.7477 296.761C62.8062 294.537 62.9232 290.909 62.6891 289.797C62.338 288.158 58.7679 284.588 56.8365 282.656C54.9051 280.725 55.1978 275.809 55.1978 275.809L53.1493 272.824C53.1493 272.824 51.5691 266.62 46.9456 265.099C42.322 263.518 39.2201 255.032 39.2201 255.032H35.3573C35.3573 255.032 32.2554 251.169 29.1535 249.589C26.0517 248.009 20.6088 250.35 20.6088 250.35C20.6088 250.35 14.405 251.111 10.5422 250.35C6.67952 249.589 7.44037 255.032 4.33848 255.793C4.22143 255.793 3.98729 255.91 3.75319 255.91C3.40203 259.07 2.87534 262.289 1.2366 264.747C-2.3335 270.132 2.69983 277.974 5.33351 280.374C5.86024 280.901 6.03574 281.603 5.97721 282.422C11.8884 283.008 15.2244 282.422 19.9065 280.14C24.6471 277.857 25.0567 284.237 30.4411 284.646C35.767 285.056 36.4109 285.466 36.4109 285.466C36.4109 285.466 32.8993 287.748 29.6219 287.339C26.3444 286.929 22.5987 282.832 20.3162 284.88C18.0337 286.929 11.0689 288.158 7.73293 288.392C7.20619 288.392 6.03574 288.685 4.51406 289.094C4.27995 290.909 4.45554 292.723 5.80164 294.245C6.21132 294.713 6.56249 295.122 6.91365 295.591C12.4736 294.186 10.7763 296.937 12.5321 297.112L12.4735 296.995Z" fill="#2AC6C3"/>
<path d="M517.496 446.413C515.097 447.115 512.463 447.876 511.41 448.403C509.829 449.164 509.01 449.69 505.908 449.339C505.557 449.807 505.089 450.159 504.562 450.393C501.87 451.388 502.338 457.474 502.338 457.474C502.338 457.474 499.88 457.708 499.88 460.635C499.88 462.625 501.226 463.502 502.104 463.854C503.509 463.854 504.738 464.029 505.733 464.205C511.937 465.317 511.351 460.81 511.351 460.81C511.351 460.81 520.364 461.396 520.949 458.528C521.535 455.719 519.252 451.212 519.252 451.212L517.438 446.413H517.496Z" fill="#2AC6C3"/>
<path d="M507.254 512.254C501.87 509.328 499.646 472.398 502.338 471.461C502.689 471.344 503.04 471.696 503.333 472.515L502.806 464.146C502.806 464.146 502.514 464.087 502.104 463.912C501.226 463.56 499.88 462.741 499.88 460.693C499.88 457.766 502.338 457.532 502.338 457.532C502.338 457.532 501.87 451.445 504.562 450.451C505.089 450.275 505.557 449.865 505.908 449.397C507.43 447.524 507.722 443.954 507.722 441.379C507.722 438.219 508.483 434.531 509.654 431.839C510.883 429.147 510.415 425.518 512.346 423.997C514.277 422.534 514.043 418.612 516.501 417.91C518.959 417.149 520.891 416.213 521.125 414.75C521.359 413.286 524.285 411.297 524.285 409.131C524.285 406.966 520.598 406.439 520.598 403.747C520.598 401.054 521.593 394.207 521.593 394.207C521.593 394.207 521.71 394.207 521.769 394.148C516.501 389.349 510.415 384.316 509.01 383.438C506.962 382.092 503.567 384.784 503.567 384.784C503.567 384.784 500.173 381.39 497.422 384.082C494.671 386.833 490.633 384.082 490.633 384.082C490.633 384.082 487.238 382.033 485.834 378.639C485.307 377.234 484.253 376.415 482.966 375.771L483.141 376.239L475.006 377.585C475.006 377.585 464.823 372.142 462.774 376.239C460.726 380.336 458.677 377.585 453.937 377.585C449.196 377.585 445.099 379.634 442.407 380.98C439.715 382.326 435.618 379.634 433.57 380.98C431.521 382.326 430.175 388.471 430.175 388.471L409.106 384.374C409.106 384.374 405.009 378.229 400.268 378.229C395.528 378.229 388.739 387.067 388.739 387.067V394.441C389.558 398.889 388.504 403.513 387.1 405.854C385.051 409.248 383.003 410.594 383.003 417.442C383.003 424.289 374.809 435.175 374.809 440.618C374.809 446.061 365.27 449.456 365.27 452.909C365.27 456.362 364.567 463.795 364.567 471.286C364.567 478.777 360.47 472.632 360.47 479.48C360.47 486.327 357.076 482.23 353.681 485.625C350.287 489.019 348.941 489.722 348.941 486.327C348.941 482.933 344.2 482.23 340.103 485.625C336.006 489.019 334.66 485.625 332.612 484.922C331.5 484.571 326.818 487.264 322.311 490.424C324.36 494.638 325.413 498.852 326.233 502.597C326.291 502.949 326.408 503.3 326.525 503.709C328.925 502.012 331.383 500.49 332.788 500.315C336.182 499.847 368.489 500.315 368.489 500.315C368.489 500.315 371.415 505.231 370.42 509.621C369.425 514.01 372.351 512.079 374.809 517.931C377.267 523.784 379.199 526.242 384.115 524.779C389.031 523.316 394.884 522.321 396.815 522.847C398.747 523.316 398.278 514.537 401.205 513.074C404.131 511.61 409.984 513.074 409.984 513.074C409.984 513.074 410.452 515.532 415.368 515.532C420.284 515.532 422.684 513.6 422.684 516.995C422.684 520.389 423.152 524.311 424.615 525.774C426.078 527.237 420.694 539.469 423.152 541.4C425.61 543.332 429.005 547.721 428.537 550.179C428.068 552.637 426.605 558.49 428.537 558.958C430.468 559.426 430.995 556.032 434.389 556.032C437.784 556.032 440.768 556.5 444.163 555.037C445.275 554.569 446.27 554.744 447.148 555.154C448.904 556.032 450.016 557.963 450.016 557.963C450.016 557.963 451.01 561.416 452.942 560.421C454.873 559.426 460.258 557.963 459.789 559.953C459.321 561.884 461.253 566.332 463.184 565.338C465.115 564.343 470.031 568.264 472.49 568.264C474.948 568.264 477.406 568.264 477.406 566.801C477.406 565.338 480.332 562.879 481.327 564.869C482.322 566.801 484.722 571.249 487.18 571.249C489.638 571.249 495.491 571.249 495.491 573.18C495.491 575.111 497.422 580.496 499.88 582.486C502.338 584.417 507.722 582.486 507.722 582.486C507.722 582.486 509.654 581.023 509.654 577.569C509.654 574.116 509.654 569.727 508.191 569.727C506.727 569.727 504.269 573.18 500.875 572.185C497.48 571.19 495.022 564.343 493.559 563.406C492.096 562.411 496.017 556.09 496.017 553.164C496.017 550.238 498.475 541.927 496.485 540.932C494.495 539.937 495.49 537.011 497.949 535.079C500.407 533.148 496.954 527.764 500.875 527.764C504.562 527.764 511.995 528.173 514.16 525.774C514.277 525.598 514.511 525.481 514.57 525.306C514.863 524.779 515.097 524.194 515.272 523.608C512.756 519.511 510.239 514.01 507.254 512.371V512.254Z" fill="#2AC6C3"/>
<path d="M751.132 156.766C750.84 155.596 750.898 154.542 751.366 153.723C753.473 150.153 754.761 140.847 750.079 139.56C745.338 138.272 742.763 147.695 742.763 150.328C742.763 150.797 742.47 150.797 741.944 150.446C744.285 156.532 748.499 157.117 751.132 156.766Z" fill="#1FADAA"/>
<path d="M299.897 357.863C301.185 357.511 304.111 358.506 306.393 356.868C308.676 355.229 313.592 359.15 314.236 362.428C314.88 365.705 316.87 361.14 318.801 357.511C320.732 353.941 326.936 343.173 326.936 340.539C326.936 337.905 332.145 335.623 332.145 334.042C332.145 332.462 331.794 328.834 333.433 328.19C335.071 327.546 336.359 322.63 336.008 320.991C335.657 319.352 341.568 310.222 342.504 308.935C343.499 307.647 348.708 308.291 349 305.365C349.293 302.438 350.288 299.161 348.357 298.517C346.425 297.873 343.792 295.591 343.792 293.952C343.792 293.016 343.909 290.382 344.494 288.041C341.86 287.69 341.743 285.056 340.221 283.534C338.583 281.896 338.583 280.608 336.3 281.252C334.018 281.896 331.384 287.456 328.458 288.451C325.531 289.445 321.259 287.163 319.328 286.168C317.396 285.173 308.266 286.168 305.34 285.817C302.414 285.466 299.487 289.738 297.205 291.026C294.922 292.313 288.426 291.669 286.436 291.026C284.505 290.382 279.94 286.461 277.95 286.461C275.96 286.461 272.097 287.104 268.82 289.036C265.542 290.967 264.606 285.466 262.616 283.183C260.684 280.901 256.412 282.832 253.837 280.608C251.203 278.326 249.623 283.183 247.34 282.891C245.058 282.539 239.205 281.252 237.215 282.891C235.284 284.529 235.577 290.733 234.64 291.669C233.645 292.664 229.724 297.23 229.724 299.512C229.724 300.566 229.314 301.268 228.671 301.677C229.08 304.37 229.665 307.823 229.783 309.11C230.017 311.334 231.012 322.337 228.554 324.737C226.095 327.195 224.398 331.116 224.398 331.116C224.398 331.116 220.477 333.808 219.775 339.193C219.014 344.577 220.009 347.972 220.009 352.127C220.009 355.053 222.174 357.16 223.403 360.789C223.403 360.789 223.462 360.789 223.52 360.906C225.452 363.481 234.757 364.008 239.966 365.12C245.175 366.232 250.559 373.606 250.384 376.357C250.208 379.108 253.778 384.492 256.236 385.838C258.695 387.126 264.723 383.38 267.473 383.38C270.224 383.38 280.174 383.556 282.164 381.741C282.749 381.215 283.334 381.273 283.919 381.624C286.26 375.362 287.138 369.802 287.138 369.802C287.138 369.802 298.434 358.097 299.78 357.746L299.897 357.863Z" fill="#2AC6C3"/>
<path d="M354.618 188.429C354.618 186.849 354.267 179.591 353.974 174.265L345.254 179.006C345.254 179.006 342.913 175.143 338.289 172.041C333.665 168.939 322.019 168.939 322.019 168.939L274.73 198.378L254.597 214.649C254.597 214.649 241.428 219.272 237.566 220.091C237.097 220.15 236.629 220.267 236.102 220.384C236.219 228.461 236.454 248.945 235.4 249.706C234.112 250.701 233.117 256.553 231.83 257.841C230.542 259.128 228.904 262.698 224.982 262.698C221.061 262.698 211.638 264.981 207.717 264.337C203.796 263.693 200.577 266.62 198.938 267.264C198.119 267.615 194.958 267.849 191.798 267.79C191.447 270.248 191.154 273.292 191.857 273.701C193.086 274.404 193.554 278.618 195.544 280.022C197.475 281.485 200.694 283.709 200.694 285.875C200.694 288.04 200.928 290.03 202.625 290.03C204.323 290.03 205.083 293.191 207.015 293.951C208.946 294.712 212.165 292.488 212.633 293.191C213.101 293.952 212.399 299.277 213.394 299.277C213.979 299.277 216.203 299.746 217.842 301.267C217.257 298.692 218.544 295.239 221.763 296.175C225.041 297.17 222.407 300.097 225.334 301.384C228.26 302.672 229.899 301.735 229.899 299.453C229.899 297.17 233.82 292.605 234.815 291.61C235.81 290.616 235.459 284.47 237.39 282.832C239.321 281.193 245.232 282.48 247.515 282.832C249.797 283.183 251.436 278.266 254.011 280.549C256.645 282.832 260.859 280.9 262.79 283.124C264.722 285.407 265.717 290.967 268.994 288.977C272.272 287.045 276.134 286.402 278.124 286.402C280.114 286.402 284.621 290.323 286.611 290.967C288.542 291.61 295.097 292.254 297.379 290.967C299.662 289.679 302.588 285.407 305.514 285.758C308.441 286.109 317.571 285.114 319.502 286.109C321.434 287.104 325.706 289.386 328.632 288.392C331.559 287.397 334.192 281.895 336.475 281.193C337.177 281.017 337.645 281.017 338.055 281.193C338.055 279.905 338.055 278.735 338.055 277.623C338.055 271.77 339.343 274.053 340.338 268.141C341.332 262.289 356.608 246.955 357.954 245.96C359.242 244.965 359.241 221.847 359.241 218.57C359.241 215.292 359.885 211.43 361.173 206.865C362.46 202.299 358.89 202.651 359.241 198.378C359.593 194.106 354.676 190.887 354.676 188.253L354.618 188.429Z" fill="#197DAF"/>
<path d="M369.893 759.294C369.893 757.011 373.814 752.797 376.097 756.016C378.379 759.294 377.384 763.859 381.949 763.859C386.514 763.859 394.65 765.497 395.937 763.508C397.225 761.576 403.077 759.937 403.077 756.309V683.619C403.077 681.044 414.139 683.619 414.139 679.405V641.597C414.139 641.597 422.274 640.953 424.556 640.31C426.839 639.666 434.974 635.394 436.964 636.74C438.895 638.027 441.529 642.592 442.817 640.954C444.104 639.315 447.382 636.037 450.659 636.037C452.415 636.037 455.341 635.276 458.092 634.633C457.565 633.696 457.214 632.76 457.214 632.058C457.214 629.307 437.374 632.584 434.038 633.696C430.76 634.808 420.284 636.447 416.948 634.808C413.671 633.169 392.718 634.808 392.718 634.808L388.856 630.946H350.814C346.951 630.946 344.2 630.419 340.923 628.195C337.645 625.971 334.309 625.971 330.446 627.668C326.584 629.307 328.222 625.444 325.472 625.444C322.721 625.444 321.609 628.195 321.609 628.195L318.156 629.073C317.805 632.467 320.789 638.613 324.36 643.47C328.105 648.503 332.67 657.985 335.128 665.944C337.586 673.904 344.61 682.917 346.365 688.887C348.18 694.915 345.078 703.577 346.834 707.439C348.648 711.361 349.76 718.033 350.755 724.705C351.75 731.377 352.218 745.54 358.246 751.451C360.529 753.675 362.87 756.777 365.094 760.23C367.786 760.464 369.835 760.815 369.835 759.059L369.893 759.294Z" fill="#2AC6C3"/>
<path d="M629.808 599.986C628.696 597.059 626.413 583.832 627.057 578.448C627.701 573.063 626.062 558.9 626.062 552.053C626.062 551.877 626.062 551.76 626.062 551.643C620.678 554.101 614.884 556.91 614.357 557.905C613.362 559.837 609.148 557.554 606.514 559.837C603.881 562.119 602.301 560.188 600.018 559.485C597.736 558.842 596.741 561.768 596.448 563.699C596.097 565.631 591.59 564.694 589.952 564.343C588.313 563.992 583.104 565.631 580.529 565.631C577.954 565.631 579.885 563.348 576.959 562.353C574.032 561.358 572.043 563.641 570.462 563.641C569.468 563.641 566.424 563.29 564.2 562.997C564.2 564.519 563.966 565.865 563.615 566.801C561.508 572.303 568.004 584.827 568.355 590.095C570.755 592.143 573.564 594.718 575.028 596.533C577.954 600.103 575.027 599.81 575.32 607.594C575.671 615.378 572.043 612.159 569.116 614.734C566.19 617.309 568.765 623.221 568.121 624.859C567.477 626.498 558.64 613.447 557.996 611.515C557.353 609.584 561.274 601.741 560.279 597.176C559.284 592.611 553.431 595.538 551.5 595.889C549.568 596.24 545.003 590.68 544.009 590.68C543.014 590.68 513.399 601.741 513.399 601.741L515.682 609.877H515.038L516.677 613.447C516.677 613.447 526.451 613.915 530.84 616.841C535.23 619.767 542.077 620.236 543.54 621.231C545.004 622.226 543.54 632.936 544.009 638.32C544.477 643.705 538.156 645.168 541.082 648.094C544.009 651.02 542.545 655.878 544.477 656.405C546.408 656.873 541.082 663.252 538.624 664.716C536.166 666.179 538.624 671.563 535.698 675.484C533.825 678.001 528.324 682.917 524.519 686.604C524.695 686.721 524.871 686.838 524.929 686.955C525.924 688.653 528.85 705.801 531.777 707.498C534.703 709.195 533.006 726.051 532.772 727.573C532.537 729.036 534.001 740.273 534.001 740.273C534.001 740.273 538.331 739.629 542.194 739.629C542.428 737.405 542.604 735.474 542.721 734.128C543.014 728.919 539.443 733.133 538.331 729.914C537.161 726.636 546.291 720.608 555.597 717.214C564.902 713.819 568.472 711.829 569.467 708.61C570.462 705.333 569.292 696.203 570.638 692.633C571.926 689.062 569.819 686.956 568.707 678.82C567.536 670.685 564.61 669.339 563.322 664.774C562.035 660.209 562.327 656.639 565.078 656.463C567.829 656.288 567.829 655 570.111 650.611C572.394 646.221 575.028 648.036 579.417 644.758C583.806 641.481 583.982 637.442 591.005 632.058C598.028 626.674 605.695 626.849 612.543 622.752C619.39 618.655 631.096 602.736 629.984 599.81L629.808 599.986Z" fill="#2AC6C3"/>
<path d="M92.7712 123.524C92.5956 116.325 92.3616 109.185 92.5372 108.482C92.8884 107.019 107.637 98.4159 110.153 96.9528C112.67 95.5481 117.352 97.655 117.352 94.7872C117.352 91.9194 123.439 93.3826 127.068 92.6218C130.638 91.9195 132.803 89.4028 132.803 86.1254C132.803 82.8479 137.836 83.6087 141.055 83.2576C144.274 82.9064 143.923 80.0387 146.089 80.0387C148.254 80.0387 147.142 76.8197 147.552 73.191C147.903 69.6209 147.903 70.3233 151.122 70.3233C154.341 70.3233 157.618 68.509 157.618 66.3435C157.618 64.178 171.606 65.6412 173.772 65.6412C175.937 65.6412 176.639 63.1245 176.288 61.3102C175.937 59.4959 174.123 54.1115 171.957 53.7604C169.792 53.4092 171.255 48.0248 171.255 43.6939C171.255 39.3629 170.553 35.4417 168.036 32.1642C167.509 31.4619 166.865 30.2328 166.222 28.7697C162.3 28.8282 157.56 25.9019 153.463 25.7849C147.786 25.6093 138.948 28.5356 134.735 23.8535C130.521 19.1129 127.536 17.6497 124.492 19.1129C121.391 20.576 115.714 36.8463 112.436 41.5869C109.159 46.3275 100.029 49.5465 95.6391 49.5465C91.2496 49.5465 90.7228 56.2185 87.3283 58.9692C83.9338 61.7199 85.2213 66.1679 81.1245 69.3869C77.0277 72.6643 79.0176 82.5552 81.1245 86.1839C83.2315 89.754 73.6331 100.991 68.0731 104.269C62.5131 107.546 60.7574 113.75 51.92 115.213C48.5255 115.798 45.9502 117.261 43.9603 119.134H84.9287C93.415 119.134 91.4836 121.066 92.8298 123.348L92.7712 123.524Z" fill="#56C1F7"/>
<path d="M10.4839 250.291C14.3466 251.052 20.5504 250.291 20.5504 250.291C20.5504 250.291 25.9934 247.95 29.0953 249.53C32.1972 251.052 35.2991 254.973 35.2991 254.973H39.1618C39.1618 254.973 42.2636 263.518 46.8872 265.04C49.5794 265.918 51.1597 268.317 52.0961 270.249C55.4321 270.19 58.0073 269.078 58.0073 266.679C58.0073 263.694 59.4703 259.773 64.445 264.221C69.4198 268.669 69.4198 264.689 70.3562 263.226C71.3512 261.762 74.8042 263.694 77.789 263.694C80.7738 263.694 84.6952 261.704 84.6952 261.704C84.6952 261.704 125.722 262.172 127.712 261.236C129.702 260.241 129.175 251.813 129.175 251.813L125.722 248.36L115.363 150.972H133.916C114.075 137.862 97.1028 126.742 94.9373 125.513C93.7668 124.811 93.1228 124.167 92.7717 123.524C92.9473 131.19 93.0644 139.033 92.5377 139.384C91.4842 140.087 55.5491 139.384 55.5491 139.384V168.823C55.5491 171.339 44.078 174.558 44.078 177.075V194.34H0.592918C-0.0508706 201.422 4.28018 203.939 6.73828 206.806C10.1328 210.728 4.1045 217.575 9.19628 224.54C14.2295 231.563 8.08436 242.273 5.62626 246.195C4.28016 248.301 4.16307 251.989 3.75338 255.793C3.98749 255.793 4.22163 255.676 4.33868 255.676C7.44057 254.915 6.67971 249.472 10.5424 250.233L10.4839 250.291Z" fill="#3FC0BE"/>
<path d="M226.68 222.374C226.68 222.374 226.68 213.83 221.237 210.728C215.794 207.626 208.83 206.865 208.83 206.865C208.83 206.865 204.967 199.9 201.865 196.798C199.992 194.926 163.764 170.696 133.916 150.972H115.363L125.722 248.36L129.175 251.813C129.175 251.813 129.644 260.241 127.712 261.236C125.722 262.231 84.6956 261.704 84.6956 261.704C84.6956 261.704 80.7742 263.694 77.7894 263.694C74.8045 263.694 71.3515 261.704 70.3566 263.226C69.3616 264.689 69.3616 268.669 64.4454 264.221C59.5292 259.773 58.0076 263.752 58.0076 266.679C58.0076 269.078 55.4324 270.132 52.0964 270.249C52.7988 271.654 53.0913 272.824 53.0913 272.824L55.1397 275.809C55.1397 275.809 54.8471 280.725 56.7785 282.656C58.7098 284.588 62.3385 288.216 62.6311 289.797C62.9237 291.435 62.6311 298.576 62.6311 298.576C62.6311 298.576 63.9186 304.136 65.9085 301.502C67.8399 298.927 70.8247 303.784 72.1123 300.507C73.3999 297.288 77.6723 301.151 79.6036 301.151C81.535 301.151 86.1002 295.298 87.4463 295.591C88.7339 295.942 91.6602 301.443 91.6602 303.726C91.6602 306.008 97.5127 308.291 95.5814 308.935C93.65 309.578 93.2988 312.856 95.5814 312.856C97.8639 312.856 96.869 317.07 98.1565 319.06C99.4441 320.991 102.078 322.63 103.365 319.704C104.653 316.777 107.579 319.352 108.925 321.342C110.213 323.274 114.485 320.991 115.129 318.416C115.773 315.782 120.982 314.846 120.689 317.772C120.397 320.698 121.333 321.342 124.61 319.06C125.605 318.357 126.659 318.24 127.712 318.416C128.883 314.612 130.17 311.1 130.814 309.93C131.809 307.998 128.532 303.433 130.17 302.789C131.809 302.146 137.311 303.433 138.949 298.868C140.588 294.303 142.519 292.021 142.519 292.021C142.519 292.021 143.163 282.247 146.09 283.885C149.016 285.524 152.586 288.099 152.937 284.237C153.288 280.315 156.858 282.598 157.853 279.028C158.848 275.458 160.78 275.75 163.062 276.394C165.345 277.038 167.276 276.043 167.276 274.112C167.276 272.18 172.485 273.117 176.699 270.19C180.913 267.264 183.195 264.981 184.834 266.62C186.473 268.259 197.241 267.908 198.822 267.264C200.46 266.62 203.679 263.694 207.601 264.338C211.522 264.981 220.945 262.699 224.866 262.699C228.787 262.699 230.426 259.129 231.713 257.841C233.001 256.554 233.996 250.643 235.283 249.706C236.337 248.945 236.103 228.461 235.986 220.385C232.064 221.204 226.622 222.433 226.622 222.433L226.68 222.374Z" fill="#008CD3"/>
<path d="M574.91 596.708C573.447 594.894 570.638 592.377 568.238 590.27C568.238 591.089 568.238 591.733 567.887 592.143C565.019 596.298 556.884 583.364 555.889 575.287C554.894 567.211 560.513 563.29 557.118 555.74C554.25 549.419 552.494 543.332 554.543 541.459C552.67 541.225 549.51 541.284 547.11 541.459C548.866 544.386 551.499 550.238 551.499 552.228C551.499 554.511 548.69 551.643 547.52 554.511C546.408 557.32 545.822 570.313 548.105 572.537C550.388 574.819 543.598 573.122 543.598 575.346C543.598 577.57 543.072 585.471 541.901 586.056C541.257 586.349 542.545 588.28 543.833 590.914H543.95C544.945 590.914 549.51 596.415 551.441 596.123C553.372 595.772 559.284 592.845 560.22 597.41C561.215 601.975 557.294 609.818 557.937 611.749C558.581 613.681 567.36 626.732 568.062 625.093C568.706 623.454 566.131 617.602 569.057 614.968C571.984 612.334 575.554 615.612 575.261 607.828C574.968 599.985 577.895 600.337 574.968 596.767L574.91 596.708Z" fill="#3FC0BE"/>
<path d="M724.444 569.318C722.981 563.992 721.811 571.249 720.523 572.595C719.236 573.883 718.592 577.804 718.884 580.438C719.236 583.071 714.963 585.646 712.388 585.354C709.754 585.003 705.54 586.641 706.828 590.27C708.116 593.84 704.897 593.196 706.477 596.123C708.116 599.049 702.907 602.619 698.342 602.97C693.777 603.321 687.924 611.456 683.008 610.813C678.092 610.169 673.234 614.09 669.02 613.388C664.806 612.744 667.733 622.167 664.455 628.078C661.178 633.931 662.816 640.778 665.743 647.977C668.669 655.175 670.951 661.028 663.109 670.451C655.266 679.874 655.91 690.35 658.895 696.846C661.821 703.343 661.821 713.116 666.094 717.74C670.308 722.305 682.071 726.226 685.642 722.656C689.212 719.086 693.016 723.125 697.054 718.384C700.975 713.819 707.472 688.711 713.032 672.09C718.592 655.468 725.732 633.638 725.088 629.073C724.444 624.508 729.009 621.581 727.02 616.665C725.088 611.808 727.663 605.896 729.946 609.818C732.228 613.739 735.506 613.739 736.442 608.53C737.437 603.321 732.521 595.186 732.228 587.695C731.877 580.203 725.381 573.063 724.386 569.435L724.444 569.318Z" fill="#1FADAA"/>
<path d="M312.245 62.6565C311.133 63.1247 305.222 69.3285 303.759 70.6161C302.295 71.9036 302.12 74.1861 302.764 75.5322C303.407 76.8198 302.295 81.5604 300.832 84.3112C299.369 87.0619 294.16 89.0518 293.809 90.6905C293.458 92.3292 296.735 96.0749 298.842 100.816C300.949 105.556 296.735 108.775 298.491 112.404C300.306 115.974 299.311 117.964 297.672 119.895C296.033 121.826 297.672 124.928 297.672 126.743C297.672 128.557 299.954 131.132 299.31 131.776C298.667 132.42 294.511 135.58 294.511 137.219C294.511 138.858 296.97 140.438 299.369 144.125C301.827 147.812 300.188 149.802 300.598 152.67C301.008 155.538 305.046 157.118 308.324 157.118C311.601 157.118 313.591 159.576 316.459 159.576C318.975 159.576 320.556 163.731 322.019 168.94C323.248 168.94 333.783 169.116 338.172 172.042C342.796 175.144 345.137 179.007 345.137 179.007L363.748 168.94L447.85 214.181V208.328H458.034V100.289C458.034 92.7975 454.639 88.0569 458.034 83.96C461.428 79.8632 456.688 77.8147 459.38 70.3819C459.672 69.504 460.024 68.5676 460.375 67.6312C460.258 67.4556 460.141 67.3386 460.082 67.2215C459.263 64.939 454.873 64.7634 445.275 63.3003C435.677 61.8371 439.247 55.3407 428.478 54.6969C417.709 54.0531 404.014 62.6565 403.897 67.2215C403.721 71.7866 408.93 76.8198 405.36 81.5604C401.79 86.3011 393.947 86.7693 388.446 81.736C382.886 76.7028 374.751 74.4202 368.079 74.4202C361.407 74.4202 356.666 70.1478 357.134 66.5777C357.603 63.0076 355.496 61.3688 349.994 60.1983C344.434 59.0863 339.752 54.5213 329.978 56.1015C324.769 56.9794 320.321 55.3992 317.278 53.4678C317.044 55.5748 316.868 57.7988 316.927 59.2034C317.103 62.7735 313.357 62.1298 312.186 62.6565H312.245Z" fill="#1FA0E1"/>
<path d="M98.6242 366.115C95.2297 363.891 93.4741 363.891 94.9372 362.662C96.4004 361.433 96.6345 358.74 96.1662 354.819C95.9907 353.59 96.1662 352.712 96.4588 352.01C95.2883 351.542 94.4104 351.015 94.2934 350.371C93.8252 348.206 91.6597 351.366 89.9625 353.766C88.2652 356.165 84.1684 353.532 84.6952 349.903C85.1634 346.274 82.7638 340.539 81.5933 340.539C80.8324 340.539 77.5549 341.007 73.6336 341.943C74.1603 343.699 72.9899 345.631 72.5802 347.562C72.112 349.786 66.2008 352.946 63.8013 354.878C63.0989 355.404 62.2211 356.809 61.2847 358.565C65.9082 361.491 71.234 364.827 75.6235 368.163C83.583 374.191 95.6394 382.151 101.375 384.316C102.136 384.609 103.014 384.726 104.067 384.726C105.413 378.522 106.877 377.761 107.345 374.425C107.813 370.738 102.194 368.339 98.7998 366.115H98.6242Z" fill="#3FC0BE"/>
<path d="M496.719 760.64C495.432 758.006 486.946 762.571 485.658 765.205C484.37 767.839 479.162 774.979 479.162 774.979L485.658 784.109L490.223 784.753C490.223 784.753 491.511 781.475 492.857 778.9C494.144 776.267 499.997 779.544 499.997 776.969C499.997 774.394 503.918 771.76 503.918 769.126C503.918 766.493 498.065 763.274 496.778 760.64H496.719Z" fill="#3FC0BE"/>
<path d="M632.676 403.864L637.768 395.963L643.035 388.237C640.577 388.764 638.353 389.408 637.534 389.818C635.602 390.813 632.91 389.349 632.149 387.594C631.388 385.896 626.531 387.36 622.609 389.525C618.688 391.749 616.757 396.373 615.294 395.378C613.83 394.383 605.052 393.154 602.593 393.154C600.135 393.154 592.351 388.003 589.893 385.838C587.435 383.614 580.353 384.609 578.656 383.614C576.959 382.619 573.506 381.917 572.277 380.453C571.048 378.99 568.121 379.224 565.663 379.751C563.205 380.219 557.353 383.672 556.884 385.604C556.709 386.248 556.182 386.833 555.48 387.418L560.513 391.983L561.625 399.884L566.132 403.864C566.132 403.864 566.131 408.37 565.546 412.877C564.961 417.383 561.04 423.061 558.23 425.87C557.411 426.689 556.241 429.381 554.953 432.717C559.284 433.771 562.503 435.468 562.269 436.756C561.801 439.448 554.426 438.219 554.426 443.837C554.426 444.247 554.426 444.598 554.426 444.949L596.039 467.072L595.512 473.861C595.512 473.861 604.876 480.709 614.006 487.03C618.044 476.671 623.37 465.199 624.775 463.034C627.233 459.288 629.691 459.932 631.798 457.357C633.905 454.723 634.549 458.644 637.826 453.436C638.06 453.026 638.411 452.558 638.763 452.09L633.32 443.428L632.734 403.981L632.676 403.864Z" fill="#3FC0BE"/>
<path d="M22.8916 310.398C25.3497 308.7 30.2072 304.252 31.9045 305.013C33.6017 305.774 35.8258 304.252 35.8258 303.316C35.8258 302.38 32.4313 299.161 35.065 298.166C36.9378 297.522 37.3475 295.356 37.4645 294.069C36.4696 293.601 35.4747 293.249 34.7138 293.308C32.4313 293.542 18.6191 294.537 18.6191 294.537C18.6191 294.537 14.5223 297.229 12.4153 296.995C10.6596 296.82 12.4154 294.069 6.79688 295.473C9.60613 298.927 9.95717 300.682 15.6342 302.262C22.0136 304.077 15.166 307.296 20.3748 310.573C20.843 310.866 21.2527 311.217 21.6624 311.51C22.1306 310.983 22.5989 310.515 22.833 310.339L22.8916 310.398Z" fill="#019E9B"/>
<path d="M193.203 339.953C191.74 336.266 192.735 328.248 192.969 324.561C193.203 320.874 191.974 318.943 190.277 317.948C189.34 317.421 188.579 313.968 188.053 310.866C186.121 311.744 185.946 314.904 185.126 313.558C184.131 311.919 158.731 310.924 157.444 312.914C156.156 314.846 159.726 322.044 159.375 323.976C159.199 325.146 158.614 325.966 157.795 326.024C160.487 332.052 161.658 341.299 161.658 343.172C161.658 345.63 157.268 347.562 157.502 350.488C157.736 353.414 153.581 359.267 153.347 361.257C153.113 363.188 156.507 371.499 157.97 373.489C158.731 374.484 158.322 376.825 157.795 378.873C162.243 380.161 165.169 381.624 166.047 381.858C167.978 382.326 181.849 376.006 187.409 373.196C191.857 370.972 196.773 369.568 200.168 367.812C198.119 363.832 196.129 358.623 196.129 355.112C196.129 349.493 194.666 343.641 193.203 339.953Z" fill="#3FC0BE"/>
<path d="M49.521 326.492C49.7551 323.8 51.9791 324.795 54.6713 325.263C57.3635 325.731 60.5239 323.566 62.982 323.566C65.4401 323.566 71.7609 332.11 71.7609 334.569C71.7609 337.027 71.995 339.192 73.2241 341.182C73.3996 341.416 73.5167 341.709 73.5752 341.943C77.4965 341.065 80.774 340.538 81.5349 340.538C82.7054 340.538 85.1635 346.332 84.6367 349.902C84.1685 353.472 88.2653 356.165 89.9041 353.765C91.6013 351.366 93.7667 348.205 94.2349 350.371C94.352 351.014 95.2886 351.6 96.4006 352.009C96.9858 350.546 98.3319 350.019 99.3269 348.673C100.79 346.742 97.1028 344.518 98.3318 342.06C99.5609 339.602 101.726 343.055 103.482 341.299C105.179 339.602 101.024 335.915 101.551 334.451C102.019 332.988 101.785 330.53 99.6194 329.301C97.8051 328.306 98.8001 324.151 99.6194 320.522C99.0342 320.113 98.5074 319.527 98.1563 318.942C96.8687 317.011 97.8636 312.738 95.5811 312.738C93.2986 312.738 93.6497 309.461 95.5811 308.817C97.5125 308.173 91.66 305.891 91.66 303.608C91.66 301.326 88.7336 295.766 87.4461 295.473C86.1585 295.122 81.5933 301.033 79.6034 301.033C77.6135 301.033 73.3996 297.112 72.112 300.389C70.8245 303.667 67.8982 298.751 65.9083 301.384C63.9769 304.018 62.6308 298.458 62.6308 298.458C62.6308 298.458 62.6309 297.697 62.6894 296.644C62.2797 296.761 61.8701 296.936 61.4604 297.053C55.8419 298.985 45.8339 297.814 45.3071 296.058C44.8389 294.361 37.4646 292.898 37.4646 292.898C37.4646 292.898 37.6987 297.053 35.0064 298.048C32.3142 299.043 35.7673 302.204 35.7673 303.199C35.7673 304.193 33.5434 305.657 31.8462 304.896C30.1489 304.135 25.2326 308.583 22.8331 310.28C22.5404 310.456 22.1307 310.865 21.6625 311.451C25.4667 314.494 25.1155 317.889 29.505 321.108C33.6018 324.092 38.8108 328.131 41.9127 334.627C45.0731 331.935 49.2868 328.248 49.4624 326.375L49.521 326.492Z" fill="#2AC6C3"/>
<path d="M20.3161 284.821C22.5986 282.773 26.2857 286.87 29.6217 287.279C32.8992 287.689 36.4108 285.407 36.4108 285.407C36.4108 285.407 35.7669 284.997 30.441 284.587C25.0566 284.178 24.647 277.798 19.9063 280.081C15.1657 282.363 11.8882 282.949 5.97707 282.363C5.86002 284.178 4.86507 286.636 4.51392 289.035C6.0356 288.626 7.20605 288.391 7.73279 288.333C11.0103 288.157 18.0335 286.87 20.3161 284.821Z" fill="#1FADAA"/>
<path d="M316.985 474.681C322.428 474.681 320.38 471.286 318.331 465.843C316.283 460.4 321.726 461.103 325.12 461.103C328.515 461.103 327.169 454.957 329.861 454.957C332.553 454.957 333.255 462.449 336.006 461.746C338.757 461.044 340.805 463.795 344.2 463.093C347.594 462.39 347.594 455.601 347.594 450.158C347.594 444.715 348.297 440.618 344.843 438.57C341.449 436.522 338.698 431.781 342.795 429.733C346.892 427.684 347.594 423.587 344.141 420.895C340.747 418.144 333.255 423.646 333.255 420.895C333.255 419.432 333.841 414.106 334.426 409.541C326.525 409.307 318.039 408.839 318.039 408.839L315.99 409.424C316.458 417.442 315.522 423.646 315.522 423.646C315.522 423.646 303.231 424.348 300.539 424.348C299.954 424.348 298.081 424.582 295.447 425.05C294.862 425.928 294.101 426.806 293.575 427.392C292.111 428.855 296.969 430.786 297.788 432.951C298.608 435.058 291.585 434.415 291.76 437.517C291.936 440.618 289.302 443.077 287.371 444.54C285.439 446.003 292.58 452.207 292.755 454.314C292.931 456.421 294.569 458.41 300.715 464.439C306.626 470.174 303.817 471.637 311.601 478.017C312.654 476.437 314.293 474.856 316.868 474.856L316.985 474.681Z" fill="#2AC6C3"/>
<path d="M555.48 352.068C556.826 355.463 562.971 358.857 565.02 364.3C567.068 369.743 572.511 372.494 575.262 372.494C577.31 372.494 575.906 375.947 575.086 382.15C576.374 382.677 577.778 383.145 578.715 383.672C580.412 384.667 587.494 383.672 589.952 385.896C592.41 388.12 600.194 393.212 602.652 393.212C605.11 393.212 613.889 394.441 615.352 395.436C616.815 396.431 618.747 391.749 622.668 389.583C626.589 387.359 631.447 385.896 632.208 387.652C632.91 389.349 635.602 390.812 637.592 389.876C638.412 389.466 640.636 388.881 643.094 388.296C646.722 387.476 650.878 386.774 651.99 386.891C653.921 387.125 659.305 379.283 666.387 379.283C673.469 379.283 675.4 380.512 678.619 377.059C681.78 373.606 705.775 349.434 707.941 347.737C710.165 346.04 706.478 345.279 704.019 345.279C701.561 345.279 696.704 345.045 688.861 341.826C681.019 338.665 668.845 334.51 666.621 333.983C664.397 333.515 661.237 328.365 659.306 327.37C657.374 326.375 653.453 319.527 652.458 317.362C652.107 316.601 652.868 315.021 654.155 313.265C651.756 310.983 650.585 310.397 648.946 311.451C646.898 312.797 643.445 313.148 642.743 311.802C642.04 310.456 640.694 305.247 643.094 302.496C645.493 299.746 648.595 294.595 648.595 294.595C648.595 294.595 627.643 272.238 625.243 271.887C622.844 271.536 615.996 272.589 614.24 271.887C612.543 271.185 612.894 270.19 609.441 271.887C605.988 273.584 604.642 270.834 602.594 269.136C600.545 267.439 598.497 267.088 597.443 270.482C596.39 273.935 595.746 275.633 593.99 273.935C593.171 273.116 588.899 273.175 584.743 273.467V273.584C585.445 278.325 580.646 283.768 580.646 286.519C580.646 289.269 577.954 291.962 575.906 291.962C573.857 291.962 571.809 297.404 569.117 300.097C566.366 302.847 568.414 308.993 565.722 310.983C562.971 313.031 558.933 313.733 560.923 315.723C562.971 317.772 557.528 321.868 557.528 325.965C557.528 330.062 556.826 337.553 556.182 338.256C555.48 338.958 547.345 336.91 547.345 340.304C547.345 343.699 543.95 343.699 545.296 346.449C546.642 349.142 554.134 348.498 555.538 351.892L555.48 352.068Z" fill="#2AC6C3"/>
<path d="M595.628 241.688C593.58 243.736 588.839 244.438 589.483 247.833C590.127 251.227 588.781 254.622 585.386 258.719C581.992 262.757 583.981 268.844 584.684 273.643C588.781 273.35 593.053 273.292 593.931 274.111C595.628 275.808 596.33 274.111 597.384 270.658C598.437 267.205 600.486 267.556 602.534 269.312C604.583 271.009 605.987 273.76 609.382 272.063C612.835 270.366 612.484 271.36 614.181 272.063C615.878 272.765 622.784 271.712 625.184 272.063C627.583 272.414 648.536 294.771 648.536 294.771C648.536 294.771 648.536 294.829 648.419 295.005C651.052 295.298 652.867 295.707 653.686 294.595C654.037 294.127 655.208 293.366 656.671 292.547C653.979 290.03 650.116 285.934 644.907 279.379C638.703 271.536 631.388 267.322 627.466 267.322C623.545 267.322 622.901 260.65 620.443 260.299C617.985 259.948 612.484 250.35 612.308 244.146C612.191 240.634 609.323 235.835 606.104 231.914C602.242 238.118 597.033 240.283 595.57 241.746L595.628 241.688Z" fill="#019E9B"/>
<path d="M315.64 423.587C315.64 423.587 316.576 417.383 316.108 409.365L313.416 410.126H298.14C298.14 410.126 298.199 410.36 298.257 410.477C299.896 412.935 299.077 416.505 295.624 417.617C292.229 418.729 292.346 421.831 295.155 422.007C296.853 422.124 296.443 423.47 295.565 424.875C298.199 424.465 300.072 424.172 300.657 424.172C303.408 424.172 315.64 423.47 315.64 423.47V423.587Z" fill="#019E9B"/>
<path d="M567.419 93.6747L559.518 74.2441C558.932 75.122 558.523 75.7658 558.289 75.9999C557.001 77.2875 551.617 74.0685 546.583 75.3561C541.55 76.6437 537.629 74.8879 532.713 72.4298C527.797 69.9717 511.878 73.0736 509.712 76.1755C507.605 79.2773 502.221 79.2773 497.363 77.346C492.447 75.4146 486.126 72.4298 477.171 71.6689C468.802 70.9081 462.072 69.6791 460.55 67.6892C460.199 68.6256 459.848 69.5619 459.555 70.4398C456.863 77.9312 461.603 79.9211 458.209 84.0179C454.814 88.1148 458.209 92.8554 458.209 100.347V185.21H525.456C525.456 185.21 527.387 183.922 529.377 182.635C531.308 181.347 534.586 184.566 534.586 184.566H548.925C548.925 184.566 551.558 187.843 554.777 187.843C557.996 187.843 556.065 182.635 561.274 182.635C566.482 182.635 565.195 174.792 568.414 174.792C571.633 174.792 571.048 175.436 574.266 170.871C574.384 170.754 574.501 170.578 574.618 170.403C574.383 168.998 574.325 167.535 574.618 165.955C575.437 160.746 571.867 161.038 569.584 153.723C567.302 146.407 558.172 135.463 557.879 131.249C557.528 127.035 552.495 124.577 552.67 120.012C552.846 115.446 550.212 114.978 545.179 107.78C540.146 100.639 538.682 88.0563 540.146 87.588C541.609 87.1198 545.823 98.1813 547.461 101.751C549.1 105.321 554.66 116.266 558.523 116.266C562.386 116.266 563.907 99.82 565.195 100.639C565.312 100.698 565.37 100.873 565.488 101.108L565.897 98.1228L567.536 93.6747H567.419Z" fill="#3CAFEA"/>
<path d="M648.42 294.947C647.776 296.001 645.142 300.215 643.094 302.614C640.694 305.365 642.04 310.515 642.743 311.92C643.445 313.266 646.898 312.973 648.946 311.569C650.527 310.515 651.756 311.101 654.155 313.383C655.384 311.569 657.14 309.579 658.72 307.94C655.97 306.36 653.453 306.067 652.809 305.424C651.697 304.253 656.087 301.034 659.189 300.39C662.29 299.746 660.827 296.176 658.194 293.894C657.784 293.484 657.257 293.075 656.731 292.548C655.267 293.367 654.097 294.186 653.746 294.596C652.926 295.708 651.112 295.299 648.478 295.006L648.42 294.947Z" fill="#3FC0BE"/>
<path d="M158.028 373.431C156.565 371.499 153.112 363.189 153.405 361.199C153.639 359.267 157.794 353.356 157.56 350.43C157.326 347.504 161.715 345.514 161.715 343.114C161.715 341.241 160.604 331.994 157.853 325.966C157.268 325.966 156.624 325.732 155.804 324.912C153.873 322.981 145.679 323.274 142.753 326.551C139.827 329.829 133.974 323.625 132.979 321.986C131.984 320.347 127.77 316.777 124.493 319.06C121.215 321.342 120.279 320.699 120.571 317.772C120.923 314.846 115.714 315.841 115.012 318.416C114.368 320.991 110.095 323.332 108.808 321.342C107.52 319.411 104.594 316.777 103.248 319.704C102.311 321.752 100.79 321.576 99.5021 320.581C98.6828 324.21 97.6878 328.365 99.5021 329.36C101.726 330.589 101.96 333.048 101.433 334.511C100.965 335.974 105.121 339.661 103.365 341.358C101.668 343.056 99.4436 339.661 98.2145 342.119C96.9855 344.577 100.673 346.743 99.2094 348.733C97.7462 350.664 95.5224 350.957 96.0491 354.819C96.5173 358.741 96.2831 361.433 94.8199 362.662C93.3568 363.891 95.0541 363.891 98.5071 366.115C101.902 368.339 107.579 370.738 107.052 374.426C106.584 377.762 105.179 378.522 103.774 384.726C110.388 384.843 122.269 380.044 136.257 377.644C144.977 376.123 152.41 377.41 157.619 378.874C158.204 376.767 158.555 374.484 157.794 373.489L158.028 373.431Z" fill="#019E9B"/>
<path d="M332.672 484.923C334.72 485.625 336.066 489.02 340.163 485.625C344.26 482.231 349 482.874 349 486.328C349 489.781 350.346 489.078 353.741 485.625C357.135 482.231 360.53 486.328 360.53 479.48C360.53 472.632 364.627 478.778 364.627 471.286C364.627 463.795 365.329 456.304 365.329 452.909C365.329 449.515 374.869 446.12 374.869 440.618C374.869 435.117 383.062 424.29 383.062 417.442C383.062 410.595 385.111 409.249 387.159 405.854C388.564 403.513 389.617 398.889 388.798 394.441V394.558L379.258 393.212L374.518 394.558L368.431 395.904C368.431 395.904 369.133 400.645 366.382 404.04C363.69 407.434 362.988 414.925 362.988 414.925C362.988 414.925 350.756 408.78 347.361 409.483C345.898 409.775 340.397 409.658 334.544 409.483C334.018 414.048 333.374 419.374 333.374 420.837C333.374 423.587 340.865 418.086 344.26 420.837C347.654 423.587 346.952 427.626 342.914 429.674C338.817 431.723 341.568 436.463 344.962 438.512C348.357 440.56 347.713 444.657 347.713 450.1C347.713 455.543 347.713 462.332 344.318 463.034C340.924 463.736 338.875 460.986 336.125 461.688C333.374 462.39 332.73 454.899 329.979 454.899C327.228 454.899 328.633 461.044 325.239 461.044C321.844 461.044 316.401 460.342 318.45 465.785C320.498 471.228 322.546 474.622 317.104 474.622C314.528 474.622 312.89 476.144 311.836 477.783C312.187 478.075 312.597 478.368 313.007 478.719C317.572 482.231 320.498 486.269 322.429 490.366C326.936 487.264 331.618 484.513 332.73 484.864L332.672 484.923Z" fill="#1FADAA"/>
<path d="M447.908 214.18L363.806 168.939L353.974 174.265C354.266 179.591 354.618 186.849 354.618 188.429C354.618 191.004 359.534 194.281 359.183 198.554C358.831 202.768 362.46 202.475 361.114 207.04C359.826 211.605 359.183 215.526 359.183 218.745C359.183 221.964 359.183 245.141 357.895 246.136C356.607 247.131 341.273 262.406 340.279 268.317C339.284 274.17 337.996 271.887 337.996 277.798C337.996 278.852 337.996 280.081 337.996 281.368C338.815 281.661 339.225 282.539 340.337 283.709C341.976 285.348 341.976 288.274 345.253 288.274C348.531 288.274 352.394 295.766 352.101 298.692C351.75 301.618 353.739 303.257 353.388 308.466C353.096 313.675 356.315 321.166 357.954 322.161C359.592 323.156 357.31 324.092 353.388 323.8C349.467 323.449 343.966 323.449 343.966 325.087C343.966 326.726 342.327 329.009 346.599 332.93C350.813 336.851 354.442 338.139 355.73 342.411C357.017 346.625 358.656 350.546 359.943 351.541C361.231 352.536 363.865 352.185 366.147 348.908C368.43 345.63 371.063 351.834 373.346 348.908C375.628 345.981 383.471 346.332 385.402 345.337C387.334 344.343 393.245 341.767 395.176 340.129C397.108 338.49 392.894 335.915 395.82 334.276C398.746 332.637 407.876 335.564 411.446 330.999C415.017 326.434 420.576 321.576 422.215 319.937C423.854 318.298 422.215 317.011 424.498 314.728C426.78 312.446 431.345 309.812 433.628 311.158C434.155 311.451 434.798 311.568 435.559 311.568C435.325 311.334 435.208 311.158 435.208 311.158L436.554 306.418C436.554 306.418 431.111 303.725 431.111 299.629C431.111 295.532 432.457 291.493 429.063 291.493C425.668 291.493 424.966 288.099 427.717 285.348C430.467 282.656 423.62 277.213 428.419 277.213C433.218 277.213 429.765 269.722 433.16 269.078C436.554 268.376 437.256 265.683 437.256 262.289C437.256 258.894 444.748 256.846 446.796 256.144C448.845 255.441 448.142 244.555 448.142 244.555V214.356L447.908 214.18Z" fill="#1D95D2"/>
<path d="M473.075 363.949C473.075 361.901 473.075 359.852 469.037 356.458C464.94 353.063 462.248 352.361 462.248 350.313C462.248 348.264 460.902 347.562 457.507 343.524C454.113 339.427 448.67 339.427 448.67 339.427L447.324 336.032L442.583 335.33C442.583 335.33 439.891 333.282 443.929 331.233C447.967 329.185 443.929 323.742 443.227 321.693C442.642 319.938 436.906 312.973 435.443 311.217C434.741 311.217 434.038 311.1 433.511 310.807C431.229 309.52 426.664 312.095 424.381 314.378C422.099 316.66 423.738 317.948 422.099 319.586C420.46 321.225 414.9 326.083 411.33 330.648C407.76 335.213 398.63 332.287 395.704 333.925C392.777 335.564 396.991 338.198 395.06 339.778C393.128 341.417 387.217 344.05 385.286 344.987C383.354 345.982 375.512 345.631 373.229 348.557C370.947 351.483 368.313 345.279 366.031 348.557C363.748 351.834 361.173 352.127 359.827 351.19C359.534 350.956 359.183 350.547 358.832 350.02C356.725 351.951 354.15 354.175 353.272 356.868C351.809 361.491 347.888 365.647 347.888 367.87C347.888 370.094 349.351 373.021 349.351 376.883C349.351 380.746 350.346 382.736 352.511 385.662C354.735 388.589 354.208 392.276 354.208 392.276C354.208 392.276 354.911 393.739 356.667 395.963C358.364 398.187 363.28 401.347 363.748 403.045C363.982 403.806 364.802 404.449 365.68 404.918C365.914 404.566 366.089 404.215 366.323 403.864C369.016 400.47 368.372 395.729 368.372 395.729L374.458 394.383L379.199 393.037L388.739 394.383V386.892C388.739 386.892 395.528 378.054 400.269 378.054C405.009 378.054 409.106 384.199 409.106 384.199L430.176 388.296C430.176 388.296 431.522 382.209 433.57 380.805C435.618 379.459 439.715 382.151 442.407 380.805C445.1 379.459 449.197 377.41 453.937 377.41C458.678 377.41 460.726 380.102 462.775 376.064C464.823 371.967 475.007 377.41 475.007 377.41L483.142 376.064L480.45 369.275C480.45 369.275 472.958 365.881 472.958 363.832L473.075 363.949Z" fill="#019E9B"/>
<path d="M318.156 408.78C318.156 408.78 343.966 410.126 347.36 409.482C350.755 408.78 362.987 414.925 362.987 414.925C362.987 414.925 363.572 408.78 365.737 405.093C364.918 404.625 364.04 404.039 363.806 403.22C363.338 401.523 358.422 398.304 356.724 396.138C355.027 393.915 354.266 392.451 354.266 392.451C354.266 392.451 354.735 388.764 352.569 385.838C350.345 382.912 349.409 380.922 349.409 377.059C349.409 373.196 347.945 370.211 347.945 368.046C347.945 365.88 351.867 361.667 353.33 357.043C354.208 354.351 356.783 352.127 358.89 350.195C357.836 348.498 356.607 345.455 355.612 342.236C354.325 337.963 350.696 336.676 346.482 332.755C342.268 328.833 343.849 326.551 343.849 324.912C343.849 323.273 349.409 323.273 353.271 323.625C357.193 323.976 359.475 322.981 357.836 321.986C356.198 320.991 352.979 313.5 353.271 308.291C353.623 303.082 351.633 301.443 351.984 298.517C352.276 295.59 348.414 288.099 345.136 288.099C344.902 288.099 344.727 288.099 344.492 288.041C343.907 290.382 343.79 293.074 343.79 293.952C343.79 295.59 346.424 297.873 348.355 298.517C350.287 299.161 349.35 302.438 348.999 305.364C348.648 308.291 343.439 307.647 342.503 308.934C341.508 310.222 335.655 319.352 336.006 320.991C336.357 322.63 335.011 327.487 333.431 328.19C331.792 328.833 332.143 332.403 332.143 334.042C332.143 335.681 326.935 337.963 326.935 340.539C326.935 343.114 320.731 353.883 318.799 357.511C316.868 361.081 314.878 365.646 314.234 362.427C313.591 359.15 308.674 355.287 306.392 356.867C304.109 358.506 301.183 357.511 299.895 357.862C298.608 358.213 287.254 369.919 287.254 369.919C287.254 369.919 286.376 375.479 284.035 381.741C285.498 382.619 287.02 385.545 288.6 387.886C290.882 391.164 295.272 388.706 297.086 389.701C298.9 390.696 300.832 398.304 300.188 400.469C299.544 402.518 296.852 407.668 298.081 410.243H313.356L318.097 408.897L318.156 408.78Z" fill="#3FC0BE"/>
<path d="M503.392 472.457C504.269 474.388 505.147 478.895 506.142 483.928C508.308 482.523 510.122 481.411 510.825 481.119C513.634 480.007 519.837 468.126 519.837 468.126L517.028 466.429C517.028 466.429 517.321 463.971 516.56 460.635C514.043 460.927 511.351 460.81 511.351 460.81C511.351 460.81 511.937 465.317 505.733 464.205C504.738 464.029 503.45 463.912 502.104 463.853C502.514 464.029 502.806 464.088 502.806 464.088L503.333 472.457H503.392Z" fill="#2AC6C3"/>
<path d="M217.725 301.384C216.086 299.862 213.862 299.394 213.277 299.394C212.282 299.394 213.043 294.01 212.516 293.308C212.048 292.605 208.829 294.771 206.897 294.068C204.966 293.308 204.205 290.147 202.508 290.147C200.811 290.147 200.577 288.216 200.577 285.992C200.577 283.768 197.416 281.602 195.426 280.139C193.495 278.676 192.968 274.521 191.739 273.818C191.037 273.409 191.33 270.365 191.681 267.907C188.637 267.907 185.652 267.556 184.833 266.737C183.194 265.098 180.912 267.38 176.698 270.307C172.484 273.233 167.275 272.238 167.275 274.228C167.275 276.218 165.344 277.154 163.061 276.511C160.779 275.867 158.848 275.516 157.853 279.144C156.858 282.714 153.287 280.432 152.936 284.353C152.644 288.274 149.015 285.641 146.089 284.002C143.162 282.363 142.519 292.137 142.519 292.137C142.519 292.137 140.587 294.42 138.949 298.985C137.31 303.55 131.75 302.262 130.17 302.906C128.531 303.55 131.808 308.115 130.813 310.046C130.228 311.217 128.882 314.728 127.711 318.532C130.111 318.942 132.394 320.99 133.096 322.102C134.091 323.741 139.944 329.945 142.87 326.668C145.796 323.39 153.931 323.097 155.921 325.029C157.852 326.96 159.199 326.024 159.491 324.034C159.784 322.102 156.214 314.904 157.56 312.972C158.847 311.041 184.248 311.977 185.243 313.616C186.238 315.255 186.238 310.339 189.457 310.69C192.734 311.041 197.592 312.621 199.582 311.977C201.513 311.334 203.796 307.764 205.786 307.764C207.775 307.764 213.628 307.412 214.916 305.832C216.203 304.193 218.486 304.193 217.842 301.618V301.501L217.725 301.384Z" fill="#2AC6C3"/>
<path d="M493.618 677.942C490.282 678.059 485.892 673.553 485.892 670.217C485.892 666.881 481.503 664.13 481.503 661.965C481.503 659.799 474.363 655.936 470.5 654.239C466.637 652.6 466.111 641.012 464.472 641.012C463.243 641.012 459.848 637.618 458.209 634.75C455.517 635.394 452.591 636.154 450.777 636.154C447.499 636.154 444.28 639.432 442.934 641.071C441.647 642.709 439.013 638.144 437.082 636.857C435.15 635.569 426.957 639.783 424.674 640.427C422.392 641.071 414.256 641.715 414.256 641.715V679.522C414.256 683.736 403.195 681.161 403.195 683.736V716.16C405.594 717.038 407.877 718.208 408.404 719.613C409.691 722.89 412.618 730.03 411.974 731.962C411.33 733.893 409.691 732.606 409.691 734.596C409.691 736.585 408.404 739.512 411.623 739.512C414.842 739.512 420.402 741.443 422.684 738.868C424.967 736.234 432.458 730.382 432.809 727.455C433.16 724.529 434.74 718.033 440.3 721.603C445.86 725.173 446.153 725.817 453.352 725.817C460.551 725.817 462.482 725.466 463.769 720.9C465.057 716.335 463.769 712.765 467.983 712.765C472.197 712.765 477.406 708.844 477.406 705.918C477.406 702.991 479.337 698.426 481.971 698.426C484.605 698.426 490.106 695.149 490.75 691.93C491.394 688.652 495.959 689.999 497.598 688.009C498.417 687.072 499.997 684.79 501.402 682.683C501.402 680.693 500.641 677.767 493.618 678.001V677.942Z" fill="#3FC0BE"/>
<path d="M219.89 339.193C220.651 333.809 224.514 331.116 224.514 331.116C224.514 331.116 226.211 327.195 228.669 324.737C231.127 322.279 230.132 311.276 229.898 309.11C229.781 307.823 229.196 304.37 228.786 301.678C228.025 302.146 226.855 302.146 225.275 301.443C222.348 300.156 224.982 297.23 221.705 296.235C218.427 295.24 217.14 298.81 217.783 301.443C218.427 304.019 216.145 304.019 214.857 305.657C213.569 307.296 207.658 307.589 205.727 307.589C203.796 307.589 201.513 311.159 199.523 311.803C199.055 311.978 198.47 311.978 197.767 311.92C198.236 320.523 199.64 319.879 203.737 322.22C208.361 324.913 203.971 328.6 205.961 330.531C207.893 332.462 207.19 337.379 207.658 343.465C207.951 347.152 208.361 356.751 208.595 363.774C211.287 363.247 214.096 363.13 215.969 363.13C219.481 363.13 221.588 358.507 223.519 360.731C222.29 357.102 220.124 354.995 220.124 352.069C220.124 347.913 219.129 344.46 219.89 339.134V339.193Z" fill="#019E9B"/>
<path d="M325.589 625.561C328.34 625.561 326.702 629.424 330.564 627.785C334.427 626.146 337.704 626.146 341.04 628.312C344.318 630.536 347.127 631.063 350.931 631.063H388.973L392.836 634.925C392.836 634.925 413.788 633.287 417.066 634.925C420.343 636.564 430.82 634.925 434.156 633.813C434.741 633.638 435.794 633.345 437.199 633.111L424.616 615.963L425.728 579.267L442.057 579.852L444.866 577.043L447.207 555.154C446.329 554.744 445.334 554.569 444.222 555.037C440.828 556.5 437.901 556.032 434.448 556.032C430.995 556.032 430.527 559.485 428.596 558.958C426.664 558.49 428.127 552.637 428.596 550.179C429.064 547.721 425.669 543.332 423.211 541.4C420.753 539.469 426.138 527.237 424.674 525.774C423.211 524.311 422.743 520.39 422.743 516.995C422.743 513.601 420.285 515.532 415.427 515.532C410.57 515.532 410.043 513.074 410.043 513.074C410.043 513.074 404.19 511.611 401.264 513.074C398.338 514.537 398.806 523.316 396.875 522.848C394.943 522.379 389.032 523.316 384.174 524.779C379.258 526.242 377.327 523.784 374.869 517.931C372.411 512.079 369.484 514.01 370.479 509.621C371.474 505.231 368.548 500.315 368.548 500.315C368.548 500.315 336.3 499.847 332.847 500.315C331.442 500.491 329.043 502.012 326.584 503.71C328.574 511.201 334.837 523.784 336.241 526.71C337.704 529.812 334.427 532.563 334.427 538.299C334.427 544.034 340.631 554.452 341.275 561.416C341.918 568.44 337.353 572.829 333.432 577.394C329.511 581.959 325.472 592.201 325.472 598.581C325.472 604.96 319.62 611.105 319.795 614.09C319.971 617.016 318.976 625.678 318.332 628.897C318.332 629.014 318.332 629.19 318.332 629.307L321.785 628.429C321.785 628.429 322.897 625.678 325.648 625.678L325.589 625.561Z" fill="#1FADAA"/>
<path d="M171.197 44.2099C171.197 48.5409 169.734 53.9253 171.899 54.2764C174.065 54.6276 175.82 60.012 176.23 61.8263C176.581 63.6406 175.879 66.1572 173.714 66.1572C171.548 66.1572 157.56 64.6941 157.56 66.8595C157.56 69.025 154.341 70.8394 151.064 70.8394C147.787 70.8394 147.845 70.137 147.494 73.7071C147.143 77.2772 148.196 80.5547 146.031 80.5547C143.865 80.5547 144.216 83.4224 140.997 83.7736C137.779 84.1248 132.745 83.4225 132.745 86.6414C132.745 89.8604 130.58 92.377 127.01 93.1378C123.44 93.8401 117.294 92.4355 117.294 95.3033C117.294 98.1711 112.612 96.0056 110.096 97.4688C107.579 98.9319 92.8303 107.535 92.4792 108.998C92.3036 109.701 92.5377 116.782 92.7133 124.04C93.0645 124.683 93.7082 125.327 94.8788 126.03C100.322 129.131 198.704 194.213 201.806 197.314C204.908 200.416 208.771 207.381 208.771 207.381C208.771 207.381 215.735 208.142 221.178 211.244C226.621 214.346 226.621 222.89 226.621 222.89C226.621 222.89 233.586 221.31 237.449 220.549C241.311 219.789 254.48 215.106 254.48 215.106L274.613 198.836L321.902 169.397H322.019C320.556 164.189 318.976 160.033 316.459 160.033C313.591 160.033 311.601 157.575 308.324 157.575C305.046 157.575 301.008 155.936 300.598 153.127C300.189 150.259 301.827 148.269 299.369 144.582C296.911 140.895 294.512 139.315 294.512 137.676C294.512 136.038 298.667 132.877 299.311 132.233C299.955 131.589 297.672 128.956 297.672 127.2C297.672 125.444 296.033 122.284 297.672 120.352C299.311 118.421 300.247 116.431 298.492 112.861C296.677 109.291 300.95 106.014 298.843 101.273C296.736 96.5323 293.458 92.7867 293.809 91.148C293.926 90.4456 294.98 89.6848 296.268 88.8069C295.682 88.046 295.272 87.1096 295.272 85.8805C295.272 81.3155 291.995 68.9665 290.064 66.3328C288.132 63.6991 281.577 61.7678 281.577 59.8364C281.577 57.905 281.577 54.6276 277.012 52.6962C272.447 50.7648 269.872 40.991 272.447 40.991C275.022 40.991 277.012 35.1383 279.646 33.8508C282.221 32.5632 285.499 26.0082 282.924 22.1455C281.168 19.5118 282.046 11.4352 283.041 4.93879C278.71 4.93879 273.969 3.35861 272.681 2.94892C270.75 2.30513 265.014 3.94388 261.444 4.06093C257.874 4.23651 249.037 9.91355 246.11 7.16282C243.184 4.41208 213.219 9.26975 204.732 9.62091C196.246 9.97206 192.676 18.751 187.643 18.751C182.61 18.751 174.591 22.9649 170.378 27.7056C169.207 29.0517 167.744 29.5198 166.222 29.5784C166.866 31.0415 167.51 32.2706 168.037 32.9729C170.553 36.1918 171.255 40.1716 171.255 44.5026L171.197 44.2099Z" fill="#51ACDA"/>
</svg>
