<svg width="20" height="16" viewBox="0 0 20 16" fill="none" xmlns="http://www.w3.org/2000/svg">
    <g clip-path="url(#clip0_2169_990)">
        <path fill-rule="evenodd" clip-rule="evenodd" d="M19 8.00001C19 7.44773 18.5523 7.00001 18 7.00001H4.415L8.70711 2.70711C9.06759 2.34662 9.09532 1.77939 8.7903 1.3871L8.70711 1.29289C8.34662 0.932409 7.77939 0.904679 7.3871 1.20971L7.29289 1.29289L1.29289 7.2929L1.2515 7.33686L1.19634 7.4047L1.12467 7.51595L1.07123 7.62867L1.03585 7.73402L1.00683 7.88254L1 8.00001L1.00279 8.07525L1.02024 8.20074L1.04974 8.31215L1.09367 8.42323L1.146 8.52072L1.21279 8.61676C1.23767 8.64848 1.26443 8.67865 1.29289 8.70712L7.29289 14.7071C7.68342 15.0976 8.31658 15.0976 8.70711 14.7071C9.06759 14.3466 9.09532 13.7794 8.7903 13.3871L8.70711 13.2929L4.415 9.00001H18C18.5523 9.00001 19 8.55229 19 8.00001Z" fill="white"/>
<!--        <path d="M9.0607 12.9394L5.62195 9.50001H18C18.8284 9.50001 19.5 8.82843 19.5 8.00001C19.5 7.1716 18.8284 6.50001 18 6.50001H5.62195L9.06067 3.06066C9.60165 2.51966 9.64287 1.66904 9.18502 1.08019L9.17543 1.06786L9.16509 1.05615L9.0819 0.961937L9.07163 0.950308L9.06066 0.939337C8.51966 0.398348 7.66903 0.357129 7.08019 0.814986L7.06786 0.824572L7.05615 0.834908L6.96194 0.918096L6.95031 0.928367L6.93934 0.93934L0.939339 6.93935L0.934032 6.94466L0.928887 6.95012L0.88749 6.99408L0.875025 7.00732L0.863554 7.02142L0.808393 7.08926L0.790961 7.1107L0.775996 7.13393L0.704332 7.24518L0.686774 7.27244L0.672882 7.30174L0.619437 7.41446L0.606703 7.44132L0.597241 7.46949L0.561861 7.57484L0.551411 7.60595L0.545119 7.63817L0.516108 7.78669L0.509638 7.81981L0.507678 7.8535L0.500844 7.97097L0.499461 7.99474L0.500343 8.01853L0.503131 8.09377L0.504068 8.11906L0.507554 8.14413L0.525006 8.26962L0.529166 8.29953L0.536895 8.32872L0.566393 8.44013L0.57394 8.46863L0.584786 8.49605L0.628721 8.60713L0.639392 8.63411L0.653112 8.65968L0.705433 8.75717L0.719056 8.78255L0.735504 8.8062L0.802295 8.90224L0.810508 8.91405L0.819387 8.92537C0.856679 8.97291 0.896742 9.01807 0.939314 9.06065L0.939339 9.06068L6.93934 15.0607L6.93935 15.0607C7.52514 15.6464 8.47486 15.6464 9.06065 15.0607L9.06067 15.0607C9.60165 14.5197 9.64287 13.6691 9.18503 13.0802L9.17543 13.0679L9.16508 13.0562L9.08189 12.962L9.07164 12.9503L9.0607 12.9394Z" stroke="black" stroke-opacity="0.4"/>-->
    </g>
    <defs>
        <clipPath id="clip0_2169_990">
            <rect width="20" height="16" fill="white"/>
        </clipPath>
    </defs>
</svg>

