<svg width="18" height="14" viewBox="0 0 18 14" fill="none" xmlns="http://www.w3.org/2000/svg">
    <path fill-rule="evenodd" clip-rule="evenodd" d="M18 7C18 6.44772 17.5523 6 17 6H3.415L7.70711 1.70711C8.06759 1.34662 8.09532 0.779392 7.7903 0.387101L7.70711 0.292893C7.34662 -0.0675907 6.77939 -0.0953203 6.3871 0.209705L6.29289 0.292893L0.292893 6.29289L0.251496 6.33685L0.196335 6.40469L0.124671 6.51594L0.0712255 6.62866L0.0358451 6.73401L0.00683422 6.88253L0 7L0.00278786 7.07524L0.0202401 7.20073L0.0497381 7.31214L0.0936734 7.42322L0.145995 7.52071L0.212786 7.61675C0.237669 7.64847 0.264427 7.67864 0.292893 7.70711L6.29289 13.7071C6.68342 14.0976 7.31658 14.0976 7.70711 13.7071C8.06759 13.3466 8.09532 12.7794 7.7903 12.3871L7.70711 12.2929L3.415 8H17C17.5523 8 18 7.55228 18 7Z" fill="black"/>
</svg>
