<svg width="12" height="9" viewBox="0 0 12 9" fill="none" xmlns="http://www.w3.org/2000/svg">
    <path d="M5.90038 5.9414C6.58237 5.9414 7.13523 5.39027 7.13523 4.71041C7.13523 4.03055 6.58237 3.47942 5.90038 3.47942C5.21839 3.47942 4.66553 4.03055 4.66553 4.71041C4.66553 5.39027 5.21839 5.9414 5.90038 5.9414Z" fill="#FF4141"/>
    <path d="M3.72681 2.23872C2.27791 3.58906 2.27791 5.77839 3.72681 7.12873M8.07348 7.12873C9.52237 5.77839 9.52237 3.58906 8.07348 2.23872" stroke="#FF4141" stroke-width="0.666667" stroke-linecap="round" stroke-linejoin="round"/>
    <path d="M2.05819 0.880493C-0.0636661 2.99571 -0.0636661 6.42517 2.05819 8.54039M9.74209 8.54039C11.8639 6.42517 11.8639 2.99571 9.74209 0.880493" stroke="#FF4141" stroke-width="0.666667" stroke-linecap="round" stroke-linejoin="round"/>
</svg>
