<svg width="19" height="18" viewBox="0 0 19 18" fill="none" xmlns="http://www.w3.org/2000/svg">
    <path d="M1.5 16.5L0.605573 16.0528C0.430923 16.4021 0.475593 16.8211 0.719958 17.1257C0.964323 17.4304 1.36367 17.5649 1.74254 17.4701L1.5 16.5ZM16.5 9C16.5 12.5899 13.5899 15.5 10 15.5V17.5C14.6944 17.5 18.5 13.6944 18.5 9H16.5ZM3.5 9C3.5 5.41015 6.41015 2.5 10 2.5V0.5C5.30558 0.5 1.5 4.30558 1.5 9H3.5ZM10 2.5C13.5899 2.5 16.5 5.41015 16.5 9H18.5C18.5 4.30558 14.6944 0.5 10 0.5V2.5ZM10 15.5C9.51772 15.5 8.92778 15.3165 8.19804 15.0576C7.8628 14.9386 7.48757 14.801 7.14008 14.6977C6.79816 14.5961 6.39708 14.5 6 14.5V16.5C6.10292 16.5 6.28138 16.5289 6.57014 16.6148C6.85332 16.699 7.15991 16.8114 7.52921 16.9424C8.20855 17.1835 9.11861 17.5 10 17.5V15.5ZM6 14.5C5.83739 14.5 5.63628 14.5326 5.49174 14.5578C5.31787 14.588 5.10765 14.6298 4.87993 14.6777C4.42315 14.7739 3.86737 14.901 3.33346 15.0266C2.79829 15.1525 2.27953 15.2783 1.89494 15.3725C1.70253 15.4196 1.54344 15.4589 1.43234 15.4864C1.37678 15.5002 1.33321 15.511 1.30346 15.5184C1.28858 15.5221 1.27715 15.5249 1.26941 15.5269C1.26554 15.5278 1.26259 15.5286 1.26059 15.5291C1.25959 15.5293 1.25883 15.5295 1.25831 15.5296C1.25804 15.5297 1.25784 15.5298 1.2577 15.5298C1.25763 15.5298 1.25757 15.5298 1.25754 15.5298C1.25749 15.5299 1.25746 15.5299 1.5 16.5C1.74254 17.4701 1.74254 17.4701 1.74255 17.4701C1.74258 17.4701 1.74261 17.4701 1.74266 17.4701C1.74277 17.4701 1.74293 17.47 1.74315 17.47C1.7436 17.4699 1.74429 17.4697 1.74521 17.4695C1.74706 17.469 1.74985 17.4683 1.75357 17.4674C1.76099 17.4655 1.77209 17.4628 1.78663 17.4591C1.81572 17.4519 1.85857 17.4413 1.91337 17.4277C2.02297 17.4005 2.18028 17.3617 2.37068 17.315C2.75172 17.2217 3.26421 17.0975 3.79154 16.9734C4.32013 16.849 4.8581 16.7261 5.29195 16.6348C5.50954 16.589 5.69385 16.5526 5.83443 16.5282C6.00435 16.4986 6.03761 16.5 6 16.5V14.5ZM1.5 16.5C2.39443 16.9472 2.39446 16.9471 2.3945 16.9471C2.39452 16.947 2.39457 16.9469 2.39461 16.9468C2.3947 16.9467 2.3948 16.9465 2.39493 16.9462C2.3952 16.9457 2.39555 16.945 2.39599 16.9441C2.39687 16.9423 2.3981 16.9398 2.39969 16.9367C2.40285 16.9303 2.4074 16.9211 2.41323 16.9093C2.42491 16.8857 2.44175 16.8515 2.46302 16.808C2.50555 16.7209 2.56589 16.5962 2.63811 16.4437C2.78224 16.1394 2.97528 15.7213 3.16914 15.2689C3.36189 14.8192 3.56131 14.3221 3.71431 13.8631C3.85507 13.4408 4 12.9284 4 12.5H2C2 12.5716 1.95743 12.8092 1.81694 13.2306C1.68869 13.6154 1.51311 14.0558 1.33085 14.4811C1.14972 14.9037 0.967759 15.2981 0.830637 15.5875C0.762239 15.7319 0.705389 15.8494 0.665886 15.9303C0.646142 15.9707 0.630757 16.002 0.620457 16.0228C0.615308 16.0332 0.611432 16.041 0.60892 16.0461C0.607664 16.0486 0.60675 16.0504 0.606188 16.0516C0.605907 16.0521 0.605715 16.0525 0.605612 16.0527C0.60556 16.0528 0.605531 16.0529 0.605524 16.0529C0.605521 16.0529 0.605533 16.0529 0.605532 16.0529C0.605549 16.0528 0.605573 16.0528 1.5 16.5ZM4 12.5C4 11.8828 3.85053 11.1221 3.73148 10.5122C3.59726 9.82447 3.5 9.31701 3.5 9H1.5C1.5 9.55958 1.65275 10.3021 1.76852 10.8953C1.89947 11.5662 2 12.1172 2 12.5H4Z" fill="#212122"/>
</svg>
