<svg width="14" height="14" viewBox="0 0 14 14" fill="none" xmlns="http://www.w3.org/2000/svg">
    <path d="M0.989673 0.98961C1.3802 0.599085 2.01336 0.599085 2.40389 0.98961L7.00008 5.58581L11.5963 0.989612C11.9868 0.599088 12.62 0.599088 13.0105 0.989612C13.401 1.38014 13.401 2.0133 13.0105 2.40383L8.41429 7.00002L13.0105 11.5963C13.4011 11.9868 13.4011 12.62 13.0105 13.0105C12.62 13.401 11.9869 13.401 11.5963 13.0105L6.99937 8.41494L2.40388 13.0104C2.01336 13.401 1.38019 13.401 0.989671 13.0104C0.599146 12.6199 0.599146 11.9867 0.989671 11.5962L5.58516 7.00073L0.989673 2.40383C0.599147 2.0133 0.599147 1.38014 0.989673 0.98961Z" fill="black"/>
</svg>
