<svg width="26" height="32" viewBox="0 0 26 32" fill="none" xmlns="http://www.w3.org/2000/svg">
<path d="M4.30559 31.9254C4.11556 31.8452 3.95766 31.704 3.85677 31.5241C3.75589 31.3442 3.71778 31.1359 3.74846 30.9319L5.43842 19.9286H0.953523C0.811338 19.9324 0.670176 19.9035 0.540926 19.8441C0.411676 19.7848 0.297795 19.6965 0.208069 19.5861C0.118342 19.4758 0.0551685 19.3463 0.0234228 19.2076C-0.00832293 19.069 -0.00779233 18.9249 0.0249734 18.7865L2.81062 6.71531C2.85964 6.50757 2.97873 6.32306 3.14785 6.19283C3.31698 6.06261 3.5258 5.99463 3.73917 6.00033H13.0247C13.1634 5.99986 13.3004 6.03048 13.4258 6.08993C13.5511 6.14938 13.6615 6.23616 13.7489 6.3439C13.8376 6.45284 13.9003 6.58048 13.9325 6.71719C13.9647 6.8539 13.9654 6.99613 13.9346 7.13316L12.3283 14.3573H16.7389C16.9129 14.3569 17.0835 14.4055 17.2313 14.4974C17.379 14.5894 17.498 14.721 17.5746 14.8773C17.6411 15.0273 17.6667 15.1922 17.6488 15.3553C17.6308 15.5184 17.57 15.6739 17.4724 15.8058L5.40127 31.5912C5.31969 31.7121 5.21076 31.8121 5.08332 31.8831C4.95587 31.9541 4.81349 31.994 4.66772 31.9997C4.54347 31.9974 4.42071 31.9722 4.30559 31.9254Z" fill="white"/>
<path d="M23.8474 10L23.2468 8.17871H20.6541L20.0535 10H18.7546L21.2546 2.9541H22.6755L25.1755 10H23.8474ZM21.9333 4.19922L20.947 7.20703H22.949L21.9675 4.19922H21.9333Z" fill="transparent"/>
</svg>
