<svg width="32" height="26" viewBox="0 0 32 26" fill="none" xmlns="http://www.w3.org/2000/svg">
    <path fill-rule="evenodd" clip-rule="evenodd" d="M14.3281 0.102394C16.782 -0.205914 19.2737 0.185388 21.5121 1.23061C23.7505 2.27583 25.6433 3.93184 26.9694 6.00527C28.2956 8.0787 29.0004 10.484 29.0015 12.9403V14.8989C29.0015 15.5489 28.4709 16.0758 27.8163 16.0758C27.1617 16.0758 26.6311 15.5489 26.6311 14.8989V12.9408C26.6301 10.9313 26.0535 8.96353 24.9685 7.26724C23.8835 5.5708 22.3349 4.21588 20.5034 3.3607C18.672 2.50552 16.6334 2.18536 14.6256 2.43761C12.6178 2.68986 10.7237 3.50411 9.16444 4.78529C8.66014 5.19966 7.91304 5.1296 7.49576 4.62882C7.07848 4.12803 7.14903 3.38615 7.65333 2.97178C9.55907 1.4059 11.8741 0.410703 14.3281 0.102394ZM4.14815 9.83226C4.80271 9.83226 5.33333 10.3592 5.33333 11.0092V12.9668C5.33488 14.9721 5.90967 16.9359 6.99086 18.6296C8.07212 20.3235 9.61541 21.6777 11.4413 22.5348C13.2671 23.3919 15.3005 23.7167 17.3049 23.4714C19.3093 23.226 21.2024 22.4207 22.764 21.1489C23.2701 20.7367 24.0169 20.81 24.432 21.3126C24.847 21.8152 24.7732 22.5568 24.2671 22.969C22.3585 24.5233 20.0447 25.5077 17.5949 25.8075C15.145 26.1074 12.6598 25.7104 10.4282 24.6629C8.19662 23.6153 6.31037 21.9601 4.98883 19.8898C3.66729 17.8196 2.96477 15.4193 2.96296 12.9681L2.96296 11.0092C2.96296 10.3592 3.49359 9.83226 4.14815 9.83226Z" fill="white"/>
    <path fill-rule="evenodd" clip-rule="evenodd" d="M3.3101 9.17952C3.77294 8.71991 4.52336 8.71991 4.9862 9.17952L7.94916 12.1218C8.41201 12.5814 8.41201 13.3266 7.94916 13.7862C7.48632 14.2458 6.7359 14.2458 6.27306 13.7862L4.14815 11.6761L2.02324 13.7862C1.56039 14.2458 0.809976 14.2458 0.347133 13.7862C-0.115711 13.3266 -0.115711 12.5814 0.347133 12.1218L3.3101 9.17952ZM24.0508 12.1218C24.5137 11.6622 25.2641 11.6622 25.7269 12.1218L27.8519 14.2319L29.9768 12.1218C30.4396 11.6622 31.19 11.6622 31.6529 12.1218C32.1157 12.5814 32.1157 13.3266 31.6529 13.7862L28.6899 16.7285C28.2271 17.1881 27.4766 17.1881 27.0138 16.7285L24.0508 13.7862C23.588 13.3266 23.588 12.5814 24.0508 12.1218Z" fill="white"/>
</svg>
