<svg width="32" height="30" viewBox="0 0 32 30" fill="none" xmlns="http://www.w3.org/2000/svg">
    <path d="M26.0759 0C25.3856 0 24.8259 0.559644 24.8259 1.25C24.8259 1.94036 25.3856 2.5 26.0759 2.5V0ZM3.25 5.94298V4.05702H0.75V5.94298H3.25ZM4.82209 2.5H6.71817V0H4.82209V2.5ZM3.25 4.05702C3.25 3.35987 3.25268 2.96343 3.2904 2.68442C3.32316 2.44206 3.3603 2.48217 3.2948 2.54732L1.53177 0.774831C1.05298 1.25106 0.883488 1.82752 0.812926 2.34955C0.747317 2.83493 0.75 3.43092 0.75 4.05702H3.25ZM4.82209 0C4.19207 0 3.59447 -0.0026269 3.1081 0.0624141C2.58646 0.132172 2.00963 0.299521 1.53177 0.774831L3.2948 2.54732C3.23022 2.61156 3.19262 2.57337 3.43947 2.54036C3.7216 2.50263 4.12176 2.5 4.82209 2.5V0ZM32 5.89912V4.05702H29.5V5.89912H32ZM27.9279 0H26.0759V2.5H27.9279V0ZM32 4.05702C32 3.43092 32.0027 2.83493 31.9371 2.34955C31.8665 1.82752 31.697 1.25106 31.2182 0.774831L29.4552 2.54732C29.3897 2.48217 29.4268 2.44206 29.4596 2.68442C29.4973 2.96343 29.5 3.35987 29.5 4.05702H32ZM27.9279 2.5C28.6282 2.5 29.0284 2.50263 29.3105 2.54036C29.5574 2.57337 29.5198 2.61156 29.4552 2.54732L31.2182 0.774831C30.7404 0.299521 30.1635 0.132172 29.6419 0.0624141C29.1555 -0.0026269 28.5579 0 27.9279 0V2.5ZM29.4559 24.057V25.943H31.9559V24.057H29.4559ZM27.8838 27.5H25.9877V30H27.8838V27.5ZM29.4559 25.943C29.4559 26.6401 29.4532 27.0366 29.4155 27.3156C29.3827 27.5579 29.3456 27.5178 29.4111 27.4527L31.1741 29.2252C31.6529 28.7489 31.8224 28.1725 31.893 27.6505C31.9586 27.1651 31.9559 26.5691 31.9559 25.943H29.4559ZM27.8838 30C28.5138 30 29.1114 30.0026 29.5978 29.9376C30.1194 29.8678 30.6963 29.7005 31.1741 29.2252L29.4111 27.4527C29.4757 27.3884 29.5133 27.4266 29.2664 27.4596C28.9843 27.4974 28.5841 27.5 27.8838 27.5V30ZM0.92638 24.057V25.943H3.42638V24.057H0.92638ZM4.99847 30H6.89455V27.5H4.99847V30ZM0.92638 25.943C0.92638 26.5691 0.923697 27.1651 0.989305 27.6505C1.05987 28.1725 1.22936 28.7489 1.70815 29.2252L3.47118 27.4527C3.53668 27.5178 3.49954 27.5579 3.46678 27.3156C3.42906 27.0366 3.42638 26.6401 3.42638 25.943H0.92638ZM4.99847 27.5C4.29814 27.5 3.89798 27.4974 3.61585 27.4596C3.369 27.4266 3.4066 27.3884 3.47118 27.4527L1.70815 29.2252C2.18601 29.7005 2.76284 29.8678 3.28448 29.9376C3.77085 30.0026 4.36845 30 4.99847 30V27.5Z" fill="white"/>
</svg>
