<svg width="20" height="20" viewBox="0 0 20 20" fill="none" xmlns="http://www.w3.org/2000/svg">
<path d="M19 10C19 14.9706 14.9706 19 10 19M19 10C19 9.39805 18.9409 8.80991 18.8282 8.24105M19 10C19 12.4153 18.0486 14.6084 16.5 16.225M10 19C8.14985 19 6.4301 18.4417 5 17.4845M10 19C12.5552 19 14.8618 17.9351 16.5 16.225M15.5 2.87555C13.9791 1.69967 12.0712 1 10 1C7.69494 1 5.59227 1.86656 4 3.29168M15.5 2.87555L14.4077 3.21659C13.8334 3.39591 13.3703 3.82427 13.1468 4.38292L12.7023 5.49436C12.574 5.81505 12.311 6.06299 11.9834 6.17221V6.17221C11.4216 6.35947 11.0872 6.93575 11.2033 7.51642L11.2913 7.95638C11.4126 8.5632 11.9455 9 12.5643 9V9C13.1231 9 13.6192 8.64243 13.7959 8.11231L13.8175 8.04743C13.9344 7.69692 14.1857 7.40717 14.5161 7.24194L14.8292 7.08541C14.9415 7.02924 15.0654 7 15.191 7V7C15.6378 7 16 7.36221 16 7.80902V7.85457C16 8.10025 15.8943 8.33404 15.7098 8.49628L14.1946 9.82886C14.0654 9.94248 13.9221 10.039 13.7682 10.1159L12.7282 10.6359C12.266 10.867 11.9279 11.2885 11.8025 11.7898V11.7898C11.6211 12.5156 11.9155 13.277 12.5379 13.6919L13 14L13.4437 14.2219C13.7999 14.4 14.0707 14.7122 14.1967 15.09V15.09C14.3816 15.6449 14.872 16.0418 15.4532 16.1072L16.5 16.225M15.5 2.87555C17.187 4.17981 18.3981 6.06996 18.8282 8.24105M18.8282 8.24105L18.4086 8.41523C17.6472 8.73134 17.3134 9.62675 17.6821 10.3642L17.7126 10.4252C17.8935 10.7871 17.8935 11.2129 17.7126 11.5748V11.5748C17.5754 11.8492 17.5409 12.1636 17.6153 12.4612L17.7839 13.1357C17.9215 13.6858 17.819 14.2685 17.502 14.7387L16.5 16.225M4 3.29168L5.96903 4.08475C6.59197 4.33566 7 4.93988 7 5.61146V5.61146C7 5.86697 6.94051 6.11898 6.82624 6.34752L6.5 7L5.89229 7.91156C5.65522 8.26718 5.22599 8.44327 4.80747 8.35661V8.35661C4.45946 8.28455 4.09864 8.39371 3.84894 8.6466L3.5 9L3.30902 9.19098C2.86221 9.63779 2.86221 10.3622 3.30902 10.809V10.809C3.43461 10.9346 3.58773 11.0292 3.75623 11.0854L4.55209 11.3507C4.84665 11.4489 5.1143 11.6143 5.33385 11.8339L5.73603 12.236C5.90963 12.4096 6.04042 12.6213 6.11805 12.8542L6.16479 12.9944C6.3627 13.5881 6.13874 14.2408 5.618 14.588V14.588C5.23191 14.8454 5 15.2787 5 15.7427V16V17.4845M4 3.29168C2.39224 4.73067 1.30485 6.73913 1.05493 9M5 17.4845C3.11936 16.2256 1.73963 14.2767 1.22302 12M1.05493 9C1.01863 9.32833 1 9.66199 1 10C1 10.6874 1.07706 11.3568 1.22302 12M1.05493 9L1.26775 9.47818C1.41955 9.81924 1.47286 10.196 1.42164 10.5658L1.22302 12" stroke="#C60033" stroke-width="2" stroke-linecap="round" stroke-linejoin="round"/>
</svg>
