<svg width="18" height="19" viewBox="0 0 18 19" fill="none" xmlns="http://www.w3.org/2000/svg">
    <path d="M1 8.90754C1 8.33081 1.24896 7.78216 1.68299 7.40238L7.68299 2.15238C8.43704 1.49259 9.56296 1.49259 10.317 2.15238L16.317 7.40238C16.751 7.78216 17 8.33081 17 8.90754V16C17 17.1046 16.1046 18 15 18H13C11.8954 18 11 17.1046 11 16V14C11 12.8954 10.1046 12 9 12V12C7.89543 12 7 12.8954 7 14V16C7 17.1046 6.10457 18 5 18H3C1.89543 18 1 17.1046 1 16V8.90754Z" stroke="#212122" stroke-width="2" stroke-linejoin="round"/>
</svg>
