<svg width="32" height="32" viewBox="0 0 32 32" fill="none" xmlns="http://www.w3.org/2000/svg">
    <path fill-rule="evenodd" clip-rule="evenodd" d="M16 28C22.6274 28 28 22.6274 28 16C28 9.37258 22.6274 4 16 4C9.37258 4 4 9.37258 4 16C4 22.6274 9.37258 28 16 28Z" stroke="white" stroke-width="2"/>
    <path fill-rule="evenodd" clip-rule="evenodd" d="M15.8125 13.375C16.4338 13.375 16.9375 12.8713 16.9375 12.25C16.9375 11.6287 16.4338 11.125 15.8125 11.125C15.1912 11.125 14.6875 11.6287 14.6875 12.25C14.6875 12.8713 15.1912 13.375 15.8125 13.375Z" fill="white"/>
    <path fill-rule="evenodd" clip-rule="evenodd" d="M14.5 15.25C14.5 14.8358 14.8358 14.5 15.25 14.5H16C16.4142 14.5 16.75 14.8358 16.75 15.25V20.5C16.75 20.9142 16.4142 21.25 16 21.25C15.5858 21.25 15.25 20.9142 15.25 20.5V16C14.8358 16 14.5 15.6642 14.5 15.25Z" fill="white"/>
</svg>
