<svg width="20" height="20" viewBox="0 0 20 20" fill="none" xmlns="http://www.w3.org/2000/svg">
    <path d="M4.5 2C3.11929 2 2 3.11929 2 4.5V5C2 5.55228 1.55228 6 1 6C0.447715 6 0 5.55228 0 5V4.5C0 2.01472 2.01472 0 4.5 0H5C5.55228 0 6 0.447715 6 1C6 1.55228 5.55228 2 5 2H4.5Z" fill="white"/>
    <path fill-rule="evenodd" clip-rule="evenodd" d="M8.95984 4C8.29397 3.99998 7.73444 3.99997 7.27657 4.03738C6.79785 4.07649 6.34289 4.16143 5.91103 4.38148C5.25247 4.71703 4.71703 5.25247 4.38148 5.91103C4.16143 6.34289 4.07649 6.79785 4.03738 7.27657C4.01958 7.49452 4.01025 7.73549 4.00536 8H2C1.44772 8 1 8.44771 1 9C1 9.55229 1.44772 10 2 10H18C18.5523 10 19 9.55229 19 9C19 8.44771 18.5523 8 18 8H15.9946C15.9898 7.73549 15.9804 7.49451 15.9626 7.27657C15.9235 6.79785 15.8386 6.34289 15.6185 5.91103C15.283 5.25247 14.7475 4.71703 14.089 4.38148C13.6571 4.16143 13.2021 4.07649 12.7234 4.03738C12.2656 3.99997 11.706 3.99998 11.0402 4H8.95984ZM13.9943 8C13.99 7.7843 13.9825 7.60112 13.9693 7.43944C13.9403 7.0844 13.889 6.92194 13.8365 6.81901C13.6927 6.53677 13.4632 6.3073 13.181 6.16349C13.0781 6.11105 12.9156 6.05975 12.5606 6.03074C12.1938 6.00078 11.7166 6 11 6H9C8.28343 6 7.80615 6.00078 7.43944 6.03074C7.0844 6.05975 6.92194 6.11105 6.81901 6.16349C6.53677 6.3073 6.3073 6.53677 6.16349 6.81901C6.11105 6.92194 6.05975 7.0844 6.03074 7.43944C6.01753 7.60112 6.00999 7.7843 6.00569 8H13.9943Z" fill="white"/>
    <path d="M12.0757 16L8.95984 16C8.29405 16 7.7344 16 7.27657 15.9626C6.79785 15.9235 6.34289 15.8386 5.91103 15.6185C5.25247 15.283 4.71703 14.7475 4.38148 14.089C4.34482 14.017 4.32528 13.9835 4.29997 13.9401C4.28429 13.9132 4.26639 13.8825 4.24083 13.8365C4.17247 13.7135 4.09846 13.5585 4.05426 13.342C4.01816 13.1651 4.00895 12.9784 4.00455 12.795C4 12.6058 4 12.3522 4 12.0159V12C4 11.4477 4.44772 11 5 11C5.55229 11 6 11.4477 6 12C6 12.3558 6.00007 12.5848 6.00397 12.7469C6.0058 12.823 6.00837 12.872 6.01047 12.9021C6.04313 12.9585 6.10631 13.0688 6.16349 13.181C6.3073 13.4632 6.53677 13.6927 6.81901 13.8365C6.92194 13.889 7.0844 13.9403 7.43944 13.9693C7.80615 13.9992 8.28343 14 9 14H12C12.5027 14 12.6376 13.9969 12.7347 13.9815C13.3765 13.8799 13.8799 13.3765 13.9815 12.7347C13.9969 12.6376 14 12.5027 14 12C14 11.4477 14.4477 11 15 11C15.5523 11 16 11.4477 16 12L16 12.0757C16.0002 12.4657 16.0003 12.7734 15.9569 13.0475C15.7197 14.5451 14.5451 15.7197 13.0475 15.9569C12.7734 16.0003 12.4657 16.0002 12.0757 16Z" fill="white"/>
    <path d="M20 15C20 14.4477 19.5523 14 19 14C18.4477 14 18 14.4477 18 15V15.5C18 16.8807 16.8807 18 15.5 18H15C14.4477 18 14 18.4477 14 19C14 19.5523 14.4477 20 15 20H15.5C17.9853 20 20 17.9853 20 15.5V15Z" fill="white"/>
    <path d="M14 1C14 0.447715 14.4477 0 15 0H15.5C17.9853 0 20 2.01472 20 4.5V5C20 5.55228 19.5523 6 19 6C18.4477 6 18 5.55228 18 5V4.5C18 3.11929 16.8807 2 15.5 2H15C14.4477 2 14 1.55228 14 1Z" fill="white"/>
    <path d="M2 15C2 14.4477 1.55228 14 1 14C0.447715 14 0 14.4477 0 15V15.5C0 17.9853 2.01472 20 4.5 20H5C5.55228 20 6 19.5523 6 19C6 18.4477 5.55228 18 5 18H4.5C3.11929 18 2 16.8807 2 15.5V15Z" fill="white"/>
</svg>
