<svg width="190" height="60" viewBox="0 0 170 55" fill="none" xmlns="http://www.w3.org/2000/svg">
    <mask id="path-1-inside-1_277_10348" fill="white">
        <path fill-rule="evenodd" clip-rule="evenodd" d="M1.80957 5.66319C0 8.57322 0 12.5488 0 20.5C0 28.4512 0 32.4268 1.80957 35.3368C2.78156 36.8999 4.1001 38.2184 5.66319 39.1904C8.57322 41 12.5488 41 20.5 41H70.4375C71.3704 42.0324 72.452 43.183 73.6705 44.4793L78.671 49.7989C81.4038 52.7062 82.7702 54.1598 84.5 54.1598C86.2298 54.1598 87.5962 52.7062 90.329 49.7989L95.3295 44.4793L95.3295 44.4792C96.548 43.183 97.6296 42.0324 98.5625 41H149.5C157.451 41 161.427 41 164.337 39.1904C165.9 38.2184 167.218 36.8999 168.19 35.3368C170 32.4268 170 28.4512 170 20.5C170 12.5488 170 8.57322 168.19 5.66319C167.218 4.1001 165.9 2.78156 164.337 1.80957C161.427 0 157.451 0 149.5 0H20.5C12.5488 0 8.57322 0 5.66319 1.80957C4.1001 2.78156 2.78156 4.1001 1.80957 5.66319Z"/>
    </mask>
    <path fill-rule="evenodd" clip-rule="evenodd" d="M1.80957 5.66319C0 8.57322 0 12.5488 0 20.5C0 28.4512 0 32.4268 1.80957 35.3368C2.78156 36.8999 4.1001 38.2184 5.66319 39.1904C8.57322 41 12.5488 41 20.5 41H70.4375C71.3704 42.0324 72.452 43.183 73.6705 44.4793L78.671 49.7989C81.4038 52.7062 82.7702 54.1598 84.5 54.1598C86.2298 54.1598 87.5962 52.7062 90.329 49.7989L95.3295 44.4793L95.3295 44.4792C96.548 43.183 97.6296 42.0324 98.5625 41H149.5C157.451 41 161.427 41 164.337 39.1904C165.9 38.2184 167.218 36.8999 168.19 35.3368C170 32.4268 170 28.4512 170 20.5C170 12.5488 170 8.57322 168.19 5.66319C167.218 4.1001 165.9 2.78156 164.337 1.80957C161.427 0 157.451 0 149.5 0H20.5C12.5488 0 8.57322 0 5.66319 1.80957C4.1001 2.78156 2.78156 4.1001 1.80957 5.66319Z" fill="#F9F9F9" fill-opacity="0.24"/>
    <path d="M1.80957 5.66319L0.960372 5.13512L1.80957 5.66319ZM1.80957 35.3368L0.960372 35.8649H0.960372L1.80957 35.3368ZM5.66319 39.1904L6.19125 38.3412H6.19125L5.66319 39.1904ZM70.4375 41L71.1795 40.3295L70.8817 40H70.4375V41ZM73.6705 44.4793L74.3991 43.7944L73.6705 44.4793ZM78.671 49.7989L77.9423 50.4838L78.671 49.7989ZM90.329 49.7989L91.0576 50.4838L90.329 49.7989ZM95.3295 44.4793L94.6224 43.7722L94.6114 43.7831L94.6008 43.7944L95.3295 44.4793ZM95.3295 44.4792L96.0366 45.1863L96.0476 45.1754L96.0582 45.1641L95.3295 44.4792ZM98.5625 41V40H98.1183L97.8205 40.3295L98.5625 41ZM164.337 39.1904L163.809 38.3412L163.809 38.3412L164.337 39.1904ZM168.19 35.3368L169.04 35.8649V35.8649L168.19 35.3368ZM168.19 5.66319L169.04 5.13512V5.13511L168.19 5.66319ZM164.337 1.80957L163.809 2.65878L163.809 2.65878L164.337 1.80957ZM5.66319 1.80957L5.13512 0.960372L5.66319 1.80957ZM1 20.5C1 16.5048 1.00108 13.5795 1.2216 11.2869C1.44066 9.00952 1.869 7.46131 2.65878 6.19125L0.960372 5.13512C-0.0594291 6.77509 -0.535878 8.66969 -0.769209 11.0954C-1.00108 13.506 -1 16.544 -1 20.5H1ZM2.65878 34.8087C1.869 33.5387 1.44066 31.9905 1.2216 29.7131C1.00108 27.4205 1 24.4952 1 20.5H-1C-1 24.456 -1.00108 27.494 -0.769209 29.9046C-0.535878 32.3303 -0.0594291 34.2249 0.960372 35.8649L2.65878 34.8087ZM6.19125 38.3412C4.75843 37.4502 3.54977 36.2416 2.65878 34.8087L0.960372 35.8649C2.01336 37.5582 3.44177 38.9866 5.13512 40.0396L6.19125 38.3412ZM20.5 40C16.5048 40 13.5795 39.9989 11.2869 39.7784C9.00952 39.5593 7.46131 39.131 6.19125 38.3412L5.13512 40.0396C6.77509 41.0594 8.66969 41.5359 11.0954 41.7692C13.506 42.0011 16.544 42 20.5 42V40ZM70.4375 40H20.5V42H70.4375V40ZM74.3991 43.7944C73.1787 42.496 72.1045 41.3531 71.1795 40.3295L69.6956 41.6705C70.6364 42.7116 71.7254 43.87 72.9419 45.1642L74.3991 43.7944ZM79.3996 49.114L74.3991 43.7944L72.9419 45.1642L77.9423 50.4838L79.3996 49.114ZM84.5 53.1598C83.9572 53.1598 83.4011 52.9471 82.5902 52.2918C81.7567 51.6183 80.786 50.5889 79.3996 49.114L77.9423 50.4838C79.2888 51.9162 80.3677 53.0673 81.3331 53.8474C82.321 54.6457 83.3131 55.1598 84.5 55.1598V53.1598ZM89.6004 49.114C88.214 50.5889 87.2433 51.6183 86.4098 52.2918C85.5989 52.9471 85.0428 53.1598 84.5 53.1598V55.1598C85.6869 55.1598 86.679 54.6457 87.6669 53.8474C88.6323 53.0673 89.7112 51.9162 91.0576 50.4838L89.6004 49.114ZM94.6008 43.7944L89.6004 49.114L91.0576 50.4838L96.0581 45.1642L94.6008 43.7944ZM94.6224 43.7721L94.6224 43.7722L96.0366 45.1864L96.0366 45.1863L94.6224 43.7721ZM97.8205 40.3295C96.8956 41.3531 95.8213 42.496 94.6009 43.7943L96.0582 45.1641C97.2747 43.87 98.3636 42.7116 99.3044 41.6705L97.8205 40.3295ZM149.5 40H98.5625V42H149.5V40ZM163.809 38.3412C162.539 39.131 160.99 39.5593 158.713 39.7784C156.421 39.9989 153.495 40 149.5 40V42C153.456 42 156.494 42.0011 158.905 41.7692C161.33 41.5359 163.225 41.0594 164.865 40.0396L163.809 38.3412ZM167.341 34.8087C166.45 36.2416 165.242 37.4502 163.809 38.3412L164.865 40.0396C166.558 38.9866 167.987 37.5582 169.04 35.8649L167.341 34.8087ZM169 20.5C169 24.4952 168.999 27.4205 168.778 29.7131C168.559 31.9905 168.131 33.5387 167.341 34.8087L169.04 35.8649C170.059 34.2249 170.536 32.3303 170.769 29.9046C171.001 27.494 171 24.456 171 20.5H169ZM167.341 6.19125C168.131 7.46131 168.559 9.00952 168.778 11.2869C168.999 13.5795 169 16.5048 169 20.5H171C171 16.544 171.001 13.506 170.769 11.0954C170.536 8.66969 170.059 6.77509 169.04 5.13512L167.341 6.19125ZM163.809 2.65878C165.242 3.54977 166.45 4.75842 167.341 6.19126L169.04 5.13511C167.987 3.44178 166.558 2.01336 164.865 0.96037L163.809 2.65878ZM149.5 1C153.495 1 156.421 1.00108 158.713 1.2216C160.99 1.44066 162.539 1.869 163.809 2.65878L164.865 0.960373C163.225 -0.0594292 161.33 -0.535878 158.905 -0.769209C156.494 -1.00108 153.456 -1 149.5 -1V1ZM20.5 1H149.5V-1H20.5V1ZM6.19125 2.65878C7.46131 1.869 9.00952 1.44066 11.2869 1.2216C13.5795 1.00108 16.5048 1 20.5 1V-1C16.544 -1 13.506 -1.00108 11.0954 -0.769209C8.66969 -0.535878 6.77509 -0.0594291 5.13512 0.960372L6.19125 2.65878ZM2.65878 6.19125C3.54977 4.75843 4.75843 3.54977 6.19125 2.65878L5.13512 0.960372C3.44178 2.01336 2.01336 3.44178 0.960372 5.13512L2.65878 6.19125Z" fill="white" mask="url(#path-1-inside-1_277_10348)"/>
</svg>
