<svg width="72" height="72" viewBox="0 0 72 72" fill="none" xmlns="http://www.w3.org/2000/svg">
<path fill-rule="evenodd" clip-rule="evenodd" d="M68 36C68 53.6731 53.6731 68 36 68C18.3269 68 4 53.6731 4 36C4 18.3269 18.3269 4 36 4C53.6731 4 68 18.3269 68 36ZM72 36C72 55.8823 55.8823 72 36 72C16.1177 72 0 55.8823 0 36C0 16.1177 16.1177 0 36 0C55.8823 0 72 16.1177 72 36ZM36 66C52.5685 66 66 52.5685 66 36C66 19.4315 52.5685 6 36 6C19.4315 6 6 19.4315 6 36C6 52.5685 19.4315 66 36 66Z" fill="#319396"/>
<path d="M28.6707 57.0395L28.6705 57.0395C19.9913 54.4237 13.9312 46.0687 13.9312 36.7216C13.9312 25.0548 23.1186 15.5611 34.4165 15.5611C39.1169 15.5611 43.7092 17.2465 47.3458 20.3083C47.6469 20.5613 47.6906 21.0178 47.4467 21.3277C47.4467 21.3277 47.4467 21.3278 47.4467 21.3278L47.3927 21.2853L28.6707 57.0395ZM28.6707 57.0395C28.7375 57.0595 28.8031 57.0687 28.8688 57.0687C29.1761 57.0687 29.4565 56.8624 29.5452 56.5475L29.5453 56.5474M28.6707 57.0395L29.5453 56.5474M29.5453 56.5474C29.6528 56.164 29.4414 55.7607 29.067 55.6482L29.5453 56.5474ZM24.5534 48.6745L24.5533 48.6746C24.3094 48.9846 24.3531 49.4411 24.6543 49.6941C28.2922 52.7545 32.8831 54.4413 37.5835 54.4413C48.8814 54.4413 58.0674 44.9461 58.0687 33.2793C58.0687 23.9323 52.0088 15.576 43.3296 12.9615C42.9485 12.8457 42.5625 13.0722 42.4548 13.4549L42.4547 13.455C42.3472 13.8383 42.5586 14.2417 42.933 14.3542C51.0138 16.7896 56.6597 24.5709 56.6597 33.2793C56.6597 44.1497 48.0997 52.9901 37.5835 52.9901C33.2083 52.9901 28.933 51.4202 25.5463 48.5703C25.2437 48.3147 24.7983 48.3648 24.5534 48.6745Z" fill="white" stroke="white" stroke-width="0.1375"/>
<path fill-rule="evenodd" clip-rule="evenodd" d="M26.5547 26.1732L26.4448 26.284V27.8539C26.4448 29.3705 26.4474 29.4271 26.5206 29.5209C26.6336 29.6657 26.8199 29.7164 26.9843 29.6473C27.2287 29.5443 27.2344 29.5097 27.2344 28.1101V26.858H28.477C29.8661 26.858 29.9005 26.8524 30.0026 26.606C30.0713 26.4405 30.0209 26.2527 29.8772 26.1389C29.7841 26.0651 29.728 26.0625 28.2227 26.0625H26.6646L26.5547 26.1732ZM41.4353 26.1389C41.2916 26.2527 41.2412 26.4405 41.3099 26.606C41.412 26.8524 41.4464 26.858 42.8355 26.858H44.0781V28.1101C44.0781 29.5097 44.0838 29.5443 44.3282 29.6473C44.4926 29.7164 44.6789 29.6657 44.7919 29.5209C44.8651 29.4271 44.8677 29.3705 44.8677 27.8539V26.284L44.7578 26.1732L44.6479 26.0625H43.0898C41.5845 26.0625 41.5284 26.0651 41.4353 26.1389ZM35.1675 27.6772C33.9658 27.8314 32.9681 28.3305 32.1848 29.1694C31.4649 29.9405 31.0489 30.8502 30.9013 31.9761C30.8795 32.1419 30.8706 32.1529 30.7201 32.1981C30.4783 32.2708 30.2711 32.4076 30.0568 32.6359C29.4797 33.2507 29.4732 34.1753 30.0415 34.8122C30.136 34.9181 30.2881 35.0489 30.3795 35.1029C30.5911 35.2278 30.9591 35.3438 31.1442 35.3438H31.2875L31.3576 35.732L31.4277 36.1203L28.8705 36.1393C26.8902 36.1539 26.2942 36.1692 26.229 36.2067C26.1318 36.2627 26.0312 36.4403 26.0312 36.556C26.0312 36.6957 26.1447 36.8632 26.2769 36.9189C26.3833 36.9637 26.8465 36.9727 29.0322 36.9727H31.6595L31.8907 37.4368C32.1591 37.9755 32.5125 38.4398 32.9047 38.769L33.168 38.99L33.112 39.1841C32.8976 39.9272 32.5875 40.4811 32.1221 40.9517C31.5964 41.4833 31.1242 41.7047 30.3385 41.7879C29.8689 41.8376 29.7795 41.8709 29.6962 42.0267C29.6113 42.1854 29.6442 42.3825 29.7762 42.507C29.8662 42.5918 29.8999 42.5979 30.255 42.5937C31.8222 42.5747 33.134 41.5134 33.7611 39.7571C33.837 39.5447 33.9018 39.4187 33.933 39.4228C33.9606 39.4265 34.1032 39.4731 34.2501 39.5263C34.7435 39.7053 35.0305 39.7512 35.6562 39.7512C36.282 39.7512 36.569 39.7053 37.0624 39.5263C37.2093 39.4731 37.3519 39.4265 37.3795 39.4228C37.4107 39.4187 37.4755 39.5447 37.5514 39.7571C38.1787 41.5138 39.5071 42.5835 41.0764 42.5955C41.4104 42.5981 41.4474 42.5909 41.5364 42.507C41.6683 42.3825 41.7011 42.1854 41.6163 42.0267C41.533 41.8707 41.4438 41.8376 40.9707 41.7875C40.197 41.7055 39.7069 41.4726 39.1716 40.9321C38.7265 40.4827 38.4117 39.9161 38.2007 39.1846L38.1449 38.9911L38.4176 38.7599C38.8523 38.3916 39.3013 37.7777 39.531 37.2379L39.6357 36.9916L42.3175 36.9727C44.399 36.958 45.0181 36.9429 45.0835 36.9053C45.1807 36.8493 45.2812 36.6717 45.2812 36.556C45.2812 36.4163 45.1678 36.2488 45.0356 36.1931C44.9294 36.1484 44.4805 36.1393 42.3874 36.1393C40.0123 36.1393 39.8672 36.1355 39.8671 36.073C39.8671 36.0365 39.8942 35.8576 39.9274 35.6752L39.9878 35.3438H40.1491C40.2378 35.3438 40.4187 35.3101 40.551 35.2689C41.0024 35.1284 41.3211 34.8461 41.5355 34.3967C41.6454 34.1666 41.6531 34.1229 41.6531 33.7318C41.6531 33.3248 41.6492 33.3051 41.513 33.0275C41.3065 32.6065 40.9564 32.3136 40.4645 32.1502C40.4198 32.1354 40.3968 32.0578 40.3769 31.8542C40.3621 31.7024 40.31 31.424 40.2611 31.2354C39.7295 29.183 37.9087 27.7437 35.7567 27.675C35.505 27.6669 35.2399 27.6679 35.1675 27.6772ZM36.5134 28.5989C38.4791 29.0853 39.7747 30.8339 39.6043 32.7707C39.5725 33.1328 39.0546 36.0995 39.0165 36.1375C38.9951 36.1589 32.3086 36.1504 32.2872 36.1289C32.2807 36.1223 32.1523 35.4443 32.002 34.6222L31.7287 33.1276L31.7308 32.4457C31.7327 31.8187 31.741 31.7364 31.834 31.4229C32.1197 30.4597 32.7228 29.6403 33.5418 29.1024C34.0049 28.7982 34.4254 28.6412 35.1299 28.5096C35.3498 28.4685 36.2108 28.5241 36.5134 28.5989ZM31.0538 33.9042C31.1056 34.1855 31.1568 34.4454 31.1675 34.4817C31.1802 34.5247 31.1698 34.5423 31.1376 34.5322C31.1104 34.5237 31.0412 34.5063 30.9838 34.4936C30.8559 34.4653 30.5971 34.2355 30.5154 34.0775C30.4811 34.0113 30.4537 33.8629 30.452 33.7337C30.4484 33.4641 30.5767 33.2046 30.7771 33.0763L30.9001 32.9975L30.9298 33.1952C30.9462 33.3038 31.002 33.6229 31.0538 33.9042ZM40.6265 33.1717C40.9799 33.5461 40.8895 34.1948 40.4521 34.424C40.3913 34.4558 40.2929 34.496 40.2334 34.5132C40.1306 34.5429 40.1262 34.5393 40.1458 34.4421C40.1676 34.3335 40.3437 33.326 40.3772 33.1178C40.4001 32.9758 40.4523 32.9871 40.6265 33.1717ZM38.6805 37.1526C38.3916 37.655 38.0463 38.0444 37.6398 38.3267C37.286 38.5723 37.0621 38.6839 36.679 38.8055C35.1221 39.3 33.4818 38.63 32.632 37.1526L32.5285 36.9727H35.6562H38.784L38.6805 37.1526ZM26.6846 41.0427C26.439 41.1504 26.4448 41.107 26.4448 42.8369V44.4035L26.5547 44.5143L26.6646 44.625H28.2227C29.728 44.625 29.7841 44.6224 29.8772 44.5486C30.0209 44.4348 30.0713 44.247 30.0026 44.0815C29.9005 43.8351 29.8661 43.8295 28.477 43.8295H27.2344V42.5774C27.2344 41.1823 27.2281 41.1429 26.9887 41.0421C26.8354 40.9776 26.8331 40.9776 26.6846 41.0427ZM44.3156 41.0437C44.0852 41.1447 44.0781 41.1902 44.0781 42.5774V43.8295H42.8355C41.4464 43.8295 41.412 43.8351 41.3099 44.0815C41.2412 44.247 41.2916 44.4348 41.4353 44.5486C41.5284 44.6224 41.5845 44.625 43.0898 44.625H44.6479L44.7578 44.5143L44.8677 44.4035V42.8369C44.8677 41.0999 44.8744 41.1484 44.6196 41.0411C44.4687 40.9775 44.4665 40.9776 44.3156 41.0437Z" fill="white"/>
</svg>
