<svg width="20" height="18" viewBox="0 0 20 18" fill="none" xmlns="http://www.w3.org/2000/svg">
<path d="M19.707 8.293L11.707 0.293001C11.5671 0.153191 11.389 0.0579847 11.195 0.0194171C11.0011 -0.0191505 10.8 0.000652574 10.6173 0.0763226C10.4346 0.151993 10.2785 0.280132 10.1686 0.444542C10.0587 0.608952 10 0.80225 10 1V4.545C7.26829 4.79779 4.72923 6.06086 2.87969 8.08703C1.03015 10.1132 0.00327173 12.7566 0 15.5L0 17C0.000157856 17.2076 0.0649097 17.41 0.185274 17.5791C0.305639 17.7482 0.475649 17.8757 0.671726 17.9438C0.867802 18.012 1.08022 18.0174 1.27953 17.9594C1.47883 17.9014 1.65514 17.7827 1.784 17.62C2.7637 16.455 3.96576 15.4968 5.31994 14.8016C6.67413 14.1064 8.15329 13.6881 9.671 13.571C9.721 13.565 9.846 13.555 10 13.545V17C10 17.1978 10.0587 17.391 10.1686 17.5555C10.2785 17.7199 10.4346 17.848 10.6173 17.9237C10.8 17.9993 11.0011 18.0192 11.195 17.9806C11.389 17.942 11.5671 17.8468 11.707 17.707L19.707 9.707C19.8945 9.51947 19.9998 9.26517 19.9998 9C19.9998 8.73484 19.8945 8.48053 19.707 8.293ZM12 14.586V12.5C12 12.2348 11.8946 11.9804 11.7071 11.7929C11.5196 11.6054 11.2652 11.5 11 11.5C10.745 11.5 9.704 11.55 9.438 11.585C6.74286 11.8333 4.17742 12.8573 2.052 14.533C2.29324 12.3274 3.33954 10.2883 4.99055 8.80616C6.64157 7.32397 8.78128 6.50285 11 6.5C11.2652 6.5 11.5196 6.39464 11.7071 6.20711C11.8946 6.01957 12 5.76522 12 5.5V3.414L17.586 9L12 14.586Z" fill="white"/>
</svg>
