<svg width="289" height="286" viewBox="0 0 289 286" fill="none" xmlns="http://www.w3.org/2000/svg">
<path d="M1 284L47.5181 265.487C53.3329 264.253 66.1669 259.069 70.9848 248.208C75.8028 237.348 84.4834 228.461 88.2214 225.376V209.948C86.7677 208.509 83.6942 204.23 83.0297 198.635C82.3651 193.04 81.9221 188.076 81.7836 186.293C79.7069 186.704 75.0967 186.828 73.2692 184.03C70.9848 180.534 72.0232 180.534 68.2851 175.185C64.547 169.837 57.9016 159.347 56.6556 150.296C55.4096 141.245 56.4479 131.577 60.186 130.549C63.1764 129.726 65.4469 131.166 66.2084 131.989C61.3628 119.441 52.2945 90.9311 54.7865 77.2727C57.9016 60.1997 70.3618 27.905 90.0905 19.2656C91.0596 18.9228 93.5793 18.3194 95.9052 18.6485C98.2311 18.9777 98.8126 16.8658 98.8126 15.7687C98.8126 14.946 99.5602 12.889 102.551 11.2434C106.289 9.18639 125.81 -0.892857 148.861 2.80972C164.852 4.32254 199.823 13.3957 211.785 37.5859C223.747 61.7761 227.153 74.123 227.36 77.2727C228.399 82.0081 228.274 98.555 219.469 126.859C223.276 125.419 231.015 124.679 231.514 133.236C232.137 143.932 232.76 151.337 225.284 161.622C217.808 171.907 220.3 175.417 216.769 179.724C213.239 184.03 209.085 188.556 206.801 186.293C204.974 184.483 203.963 183.353 203.686 183.015L200.156 198.635C200.086 201.03 198.951 206.647 194.964 209.948V225.376C199.117 230.103 208.006 241.286 210.331 248.208C213.239 256.861 221.546 264.883 241.274 268.997C257.057 272.288 279.001 279.008 288 281.956" stroke="white" stroke-width="3"/>
</svg>
