<svg width="48" height="48" viewBox="0 0 48 48" fill="none" xmlns="http://www.w3.org/2000/svg">
<path opacity="0.15" d="M48 24C48 10.7452 37.2548 0 24 0C10.7452 0 0 10.7452 0 24C0 37.2548 10.7452 48 24 48C37.2548 48 48 37.2548 48 24Z" fill="#0DC268"/>
<path fill-rule="evenodd" clip-rule="evenodd" d="M36.9486 15.4983C37.7857 16.2308 37.8705 17.5031 37.1381 18.3402L23.0402 34.4521C22.6731 34.8716 22.1486 35.1202 21.5915 35.1387C21.0344 35.1573 20.4946 34.9441 20.1004 34.55L12.0445 26.494C11.258 25.7075 11.258 24.4324 12.0445 23.6458C12.831 22.8593 14.1062 22.8593 14.8927 23.6458L21.4264 30.1796L34.1067 15.6878C34.8392 14.8507 36.1115 14.7659 36.9486 15.4983Z" fill="#0DC268"/>
</svg>
