<svg width="20" height="20" viewBox="0 0 20 20" fill="none" xmlns="http://www.w3.org/2000/svg">
    <path fill-rule="evenodd" clip-rule="evenodd" d="M10 19C14.9706 19 19 14.9706 19 10C19 5.02944 14.9706 1 10 1C5.02944 1 1 5.02944 1 10C1 14.9706 5.02944 19 10 19Z" fill="#0DC268"/>
    <path fill-rule="evenodd" clip-rule="evenodd" d="M14.6189 6.81058C14.9306 7.08334 14.9622 7.55716 14.6894 7.86889L9.43943 13.8689C9.30274 14.0251 9.10742 14.1177 8.89996 14.1246C8.6925 14.1315 8.49145 14.0521 8.34467 13.9053L5.34467 10.9053C5.05178 10.6124 5.05178 10.1376 5.34467 9.84468C5.63756 9.55179 6.11244 9.55179 6.40533 9.84468L8.83847 12.2778L13.5606 6.88113C13.8333 6.5694 14.3072 6.53782 14.6189 6.81058Z" fill="#F2F3F7"/>
</svg>
