<svg width="20" height="22" viewBox="0 0 20 22" fill="none" xmlns="http://www.w3.org/2000/svg">
    <path fill-rule="evenodd" clip-rule="evenodd" d="M5.10002 4H1C0.447715 4 0 4.44772 0 5C0 5.55228 0.447715 6 1 6H2.06055L2.88474 19.1871C2.98356 20.7682 4.29471 22 5.8789 22H14.1211C15.7053 22 17.0164 20.7682 17.1153 19.1871L17.9395 6H19C19.5523 6 20 5.55228 20 5C20 4.44772 19.5523 4 19 4H17.0073C17.0018 3.99995 16.9963 3.99995 16.9908 4H14.9C14.4367 1.71776 12.419 0 10 0C7.58104 0 5.56329 1.71776 5.10002 4ZM7.17071 4H12.8293C12.4175 2.83481 11.3062 2 10 2C8.69378 2 7.58254 2.83481 7.17071 4ZM15.9355 6H4.06445L4.88085 19.0624C4.91379 19.5894 5.35084 20 5.8789 20H14.1211C14.6492 20 15.0862 19.5894 15.1192 19.0624L15.9355 6ZM12.279 9.00974C12.83 9.04827 13.2454 9.52612 13.2068 10.0771L12.7883 16.0624C12.7498 16.6134 12.2719 17.0288 11.721 16.9903C11.17 16.9517 10.7546 16.4739 10.7932 15.9229L11.2117 9.93755C11.2502 9.38661 11.7281 8.97122 12.279 9.00974ZM7.721 9.00977C8.27194 8.97125 8.7498 9.38664 8.78832 9.93758L9.20686 15.923C9.24539 16.4739 8.82999 16.9518 8.27905 16.9903C7.72811 17.0288 7.25026 16.6134 7.21173 16.0625L6.79319 10.0771C6.75467 9.52615 7.17006 9.0483 7.721 9.00977Z" fill="#929DB2"/>
</svg>
