<svg width="20" height="20" viewBox="0 0 20 20" fill="none" xmlns="http://www.w3.org/2000/svg">
<path fill-rule="evenodd" clip-rule="evenodd" d="M10 19C14.9706 19 19 14.9706 19 10C19 5.02944 14.9706 1 10 1C5.02944 1 1 5.02944 1 10C1 14.9706 5.02944 19 10 19Z" fill="#F33737"/>
<path d="M12.4664 6.26328L10.0007 8.72705L7.5364 6.26328C7.18492 5.91224 6.61508 5.91224 6.2636 6.26328C5.91213 6.61433 5.91213 7.18348 6.2636 7.53452L8.7287 9.9995L6.2636 12.4655C5.91213 12.8165 5.91213 13.3857 6.2636 13.7367C6.61508 14.0878 7.18492 14.0878 7.5364 13.7367L10.0007 11.2719L12.4664 13.7367C12.8179 14.0878 13.3877 14.0878 13.7392 13.7367C14.0907 13.3857 14.0907 12.8165 13.7392 12.4655L11.2727 9.9995L13.7392 7.53452C14.0907 7.18348 14.0907 6.61433 13.7392 6.26328C13.3877 5.91224 12.8179 5.91224 12.4664 6.26328Z" fill="#F2F3F7"/>
<path d="M12.4664 6.26328L10.0007 8.72705L7.5364 6.26328C7.18492 5.91224 6.61508 5.91224 6.2636 6.26328C5.91213 6.61433 5.91213 7.18348 6.2636 7.53452L8.7287 9.9995L6.2636 12.4655C5.91213 12.8165 5.91213 13.3857 6.2636 13.7367C6.61508 14.0878 7.18492 14.0878 7.5364 13.7367L10.0007 11.2719L12.4664 13.7367C12.8179 14.0878 13.3877 14.0878 13.7392 13.7367C14.0907 13.3857 14.0907 12.8165 13.7392 12.4655L11.2727 9.9995L13.7392 7.53452C14.0907 7.18348 14.0907 6.61433 13.7392 6.26328C13.3877 5.91224 12.8179 5.91224 12.4664 6.26328Z" fill="#F2F3F7"/>
</svg>
